<svg width="92" height="23" viewBox="0 0 92 23" fill="none" xmlns="http://www.w3.org/2000/svg">
<path d="M11.936 6.52H21.728L22.176 7.48C22.7733 8.824 23.072 10.264 23.072 11.8C23.072 13.336 22.784 14.7867 22.208 16.152C21.6533 17.496 20.8747 18.68 19.872 19.704C18.8693 20.7067 17.696 21.5067 16.352 22.104C15.0293 22.68 13.6 22.9787 12.064 23C10.528 23 9.07733 22.712 7.712 22.136C6.34667 21.56 5.152 20.7707 4.128 19.768C3.12533 18.7653 2.32533 17.592 1.728 16.248C1.152 14.904 0.864 13.464 0.864 11.928C0.864 10.392 1.14133 8.952 1.696 7.608C2.272 6.264 3.06133 5.09067 4.064 4.088C5.06667 3.064 6.24 2.25333 7.584 1.656C8.94933 1.05866 10.4 0.759998 11.936 0.759998V5.4C10.1013 5.4 8.56533 6.04 7.328 7.32C6.06933 8.57867 5.44 10.1147 5.44 11.928C5.44 12.824 5.61067 13.6667 5.952 14.456C6.29333 15.2453 6.77333 15.9493 7.392 16.568C8.01067 17.1867 8.704 17.656 9.472 17.976C10.2613 18.296 11.0933 18.456 11.968 18.456C12.9067 18.4347 13.7707 18.264 14.56 17.944C15.3493 17.624 16.032 17.1547 16.608 16.536C17.2267 15.9173 17.696 15.2133 18.016 14.424C18.336 13.6347 18.496 12.792 18.496 11.896C18.496 11.64 18.4747 11.3733 18.432 11.096H11.936V6.52ZM30.7823 0.759998H35.5503L44.2223 19.768V23H40.5743L38.0143 17.272H28.2863L25.7583 23H22.1103V19.768L30.7823 0.759998ZM33.1823 6.36L30.3663 12.696H35.9983L33.1823 6.36ZM67.7215 23H63.1455L50.1215 7.768V23H45.5455V0.759998H50.1215L63.1455 15.992V0.759998H67.7215V23ZM80.3735 6.52H90.1655L90.6135 7.48C91.2108 8.824 91.5095 10.264 91.5095 11.8C91.5095 13.336 91.2215 14.7867 90.6455 16.152C90.0908 17.496 89.3122 18.68 88.3095 19.704C87.3068 20.7067 86.1335 21.5067 84.7895 22.104C83.4668 22.68 82.0375 22.9787 80.5015 23C78.9655 23 77.5148 22.712 76.1495 22.136C74.7842 21.56 73.5895 20.7707 72.5655 19.768C71.5628 18.7653 70.7628 17.592 70.1655 16.248C69.5895 14.904 69.3015 13.464 69.3015 11.928C69.3015 10.392 69.5788 8.952 70.1335 7.608C70.7095 6.264 71.4988 5.09067 72.5015 4.088C73.5042 3.064 74.6775 2.25333 76.0215 1.656C77.3868 1.05866 78.8375 0.759998 80.3735 0.759998V5.4C78.5388 5.4 77.0028 6.04 75.7655 7.32C74.5068 8.57867 73.8775 10.1147 73.8775 11.928C73.8775 12.824 74.0482 13.6667 74.3895 14.456C74.7308 15.2453 75.2108 15.9493 75.8295 16.568C76.4482 17.1867 77.1415 17.656 77.9095 17.976C78.6988 18.296 79.5308 18.456 80.4055 18.456C81.3442 18.4347 82.2082 18.264 82.9975 17.944C83.7868 17.624 84.4695 17.1547 85.0455 16.536C85.6642 15.9173 86.1335 15.2133 86.4535 14.424C86.7735 13.6347 86.9335 12.792 86.9335 11.896C86.9335 11.64 86.9122 11.3733 86.8695 11.096H80.3735V6.52Z" fill="#C0C0C0"/>
</svg>
