<svg width="1920" height="279" viewBox="0 0 1920 279" fill="none" xmlns="http://www.w3.org/2000/svg">
<mask id="path-1-outside-1_2146_2079" maskUnits="userSpaceOnUse" x="-106" y="-5" width="198" height="288" fill="black">
<rect fill="white" x="-106" y="-5" width="198" height="288"/>
<path d="M-7.39999 90.4C5.66667 90.4 17.9333 92.8 29.4 97.6C40.8667 102.4 50.7333 109.067 59 117.6C67.5333 126.133 74.2 136.133 79 147.6C84.0667 158.8 86.6 170.8 86.6 183.6C86.6 196.667 84.2 208.933 79.4 220.4C74.8667 231.867 68.3333 241.867 59.8 250.4C51.2667 258.667 41.2667 265.333 29.8 270.4C18.6 275.467 6.6 278 -6.2 278C-19.2667 278 -31.5333 275.6 -43 270.8C-54.4667 266 -64.4667 259.333 -73 250.8C-81.5333 242.267 -88.3333 232.4 -93.4 221.2C-98.2 209.733 -100.6 197.6 -100.6 184.8C-100.6 171.733 -98.2 159.467 -93.4 148C-88.6 136.533 -82.0667 126.667 -73.8 118.4C-65.2667 109.867 -55.2667 103.067 -43.8 98C-32.3333 92.9333 -20.2 90.4 -7.39999 90.4ZM19.4 210.8C26.3333 203.6 29.8 194.8 29.8 184.4C29.8 179.333 28.8667 174.667 27 170.4C25.1333 165.867 22.4667 161.867 19 158.4C11.5333 151.467 2.73334 148 -7.39999 148C-17.5333 148 -26.2 151.467 -33.4 158.4C-40.3333 166.133 -43.8 174.933 -43.8 184.8C-43.8 194.933 -40.2 203.733 -33 211.2C-25.8 218.133 -17 221.6 -6.59999 221.6C-1.79999 221.6 2.86667 220.667 7.40001 218.8C11.9333 216.933 15.9333 214.267 19.4 210.8ZM18.2 96C21.9333 91.4667 23.6667 85.4667 23.4 78C23.4 73.7333 22.6 69.8667 21 66.4C19.6667 62.6666 17.5333 59.3333 14.6 56.4C8.46667 50.5333 1.13334 47.6 -7.39999 47.6C-15.6667 47.6 -22.8667 50.5333 -29 56.4C-34.6 62.8 -37.4 70.1333 -37.4 78.4C-36.8667 85.8667 -34.4667 91.6 -30.2 95.6L-69 125.2C-72.7333 119.867 -75.9333 114.267 -78.6 108.4C-82.6 98.8 -84.6 88.8 -84.6 78.4C-84.6 67.4667 -82.6 57.3333 -78.6 48C-74.6 38.4 -69.1333 30.1333 -62.2 23.2C-55.2667 16.2667 -47.1333 10.6667 -37.8 6.39999C-28.2 2.13332 -18.0667 -2.09808e-05 -7.39999 -2.09808e-05C3.53334 -2.09808e-05 13.6667 1.99999 23 6C32.6 9.99999 40.8667 15.6 47.8 22.8C54.7333 29.7333 60.2 37.8667 64.2 47.2C68.4667 56.5333 70.6 66.5333 70.6 77.2C70.6 88.1333 68.6 98.2667 64.6 107.6C61.4 115.333 57.2667 122.133 52.2 128L18.2 96Z"/>
</mask>
<path d="M29.4 97.6L31.3307 92.9878L31.3307 92.9878L29.4 97.6ZM59 117.6L55.4088 121.079L55.4364 121.107L55.4645 121.136L59 117.6ZM79 147.6L74.3878 149.531L74.4152 149.596L74.4445 149.661L79 147.6ZM79.4 220.4L74.7878 218.469L74.7685 218.515L74.7502 218.562L79.4 220.4ZM59.8 250.4L63.279 253.991L63.3075 253.964L63.3355 253.936L59.8 250.4ZM29.8 270.4L27.7792 265.827L27.7591 265.835L27.7392 265.844L29.8 270.4ZM-43 270.8L-41.0693 266.188L-43 270.8ZM-73 250.8L-76.5355 254.336L-73 250.8ZM-93.4 221.2L-98.0122 223.131L-97.9848 223.196L-97.9555 223.261L-93.4 221.2ZM-93.4 148L-88.7878 149.931L-93.4 148ZM-73.8 118.4L-70.2645 121.936L-73.8 118.4ZM-43.8 98L-41.7792 102.573L-43.8 98ZM19.4 210.8L22.9355 214.336L22.9689 214.302L23.0016 214.268L19.4 210.8ZM27 170.4L22.3766 172.304L22.3974 172.354L22.4192 172.404L27 170.4ZM19 158.4L22.5356 154.864L22.4701 154.799L22.4023 154.736L19 158.4ZM-33.4 158.4L-36.8682 154.798L-37.0004 154.926L-37.1228 155.062L-33.4 158.4ZM-33 211.2L-36.5992 214.671L-36.5349 214.737L-36.4682 214.802L-33 211.2ZM18.2 96L14.3404 92.8215L11.3655 96.4338L14.7732 99.641L18.2 96ZM23.4 78L18.4 78V78.0893L18.4032 78.1785L23.4 78ZM21 66.4L16.2913 68.0817L16.3665 68.2922L16.4602 68.4953L21 66.4ZM14.6 56.4L18.1355 52.8645L18.0963 52.8252L18.0561 52.7868L14.6 56.4ZM-29 56.4L-32.4561 52.7868L-32.6166 52.9403L-32.7629 53.1075L-29 56.4ZM-37.4 78.4H-42.4V78.5783L-42.3873 78.7562L-37.4 78.4ZM-30.2 95.6L-27.1673 99.5753L-22.4709 95.9924L-26.7803 91.9523L-30.2 95.6ZM-69 125.2L-73.0962 128.067L-70.1089 132.335L-65.9673 129.175L-69 125.2ZM-78.6 108.4L-83.2154 110.323L-83.1848 110.397L-83.1518 110.469L-78.6 108.4ZM-78.6 48L-74.0043 49.9696L-73.9943 49.9464L-73.9846 49.9231L-78.6 48ZM-62.2 23.2L-65.7355 19.6645L-62.2 23.2ZM-37.8 6.39999L-39.8307 1.83094L-39.8548 1.84165L-39.8788 1.85262L-37.8 6.39999ZM23 6L21.0304 10.5957L21.0536 10.6057L21.0769 10.6154L23 6ZM47.8 22.8L44.1984 26.2682L44.2311 26.3022L44.2645 26.3355L47.8 22.8ZM64.2 47.2L59.6043 49.1696L59.6278 49.2245L59.6526 49.2788L64.2 47.2ZM64.6 107.6L60.0043 105.63L59.9919 105.659L59.9799 105.688L64.6 107.6ZM52.2 128L48.7732 131.641L52.5733 135.218L55.9841 131.268L52.2 128ZM-7.39999 95.4C5.03825 95.4 16.6452 97.6812 27.4693 102.212L31.3307 92.9878C19.2215 87.9188 6.29509 85.4 -7.39999 85.4V95.4ZM27.4693 102.212C38.3409 106.763 47.6349 113.054 55.4088 121.079L62.5912 114.121C53.8317 105.079 43.3924 98.0369 31.3307 92.9878L27.4693 102.212ZM55.4645 121.136C63.5241 129.195 69.8312 138.645 74.3878 149.531L83.6122 145.669C78.5688 133.621 71.5426 123.072 62.5355 114.064L55.4645 121.136ZM74.4445 149.661C79.2061 160.186 81.6 171.481 81.6 183.6H91.6C91.6 170.119 88.9273 157.414 83.5556 145.539L74.4445 149.661ZM81.6 183.6C81.6 196.038 79.3188 207.645 74.7878 218.469L84.0122 222.331C89.0812 210.221 91.6 197.295 91.6 183.6H81.6ZM74.7502 218.562C70.4627 229.407 64.3035 238.825 56.2645 246.864L63.3355 253.936C72.3631 244.908 79.2706 234.327 84.0498 222.238L74.7502 218.562ZM56.321 246.809C48.2349 254.642 38.7357 260.985 27.7792 265.827L31.8208 274.973C43.7977 269.681 54.2984 262.691 63.279 253.991L56.321 246.809ZM27.7392 265.844C17.2135 270.606 5.91931 273 -6.2 273V283C7.28069 283 19.9865 280.327 31.8608 274.956L27.7392 265.844ZM-6.2 273C-18.6382 273 -30.2452 270.719 -41.0693 266.188L-44.9307 275.412C-32.8215 280.481 -19.8951 283 -6.2 283V273ZM-41.0693 266.188C-51.9545 261.631 -61.4049 255.324 -69.4645 247.264L-76.5355 254.336C-67.5284 263.343 -56.9788 270.369 -44.9307 275.412L-41.0693 266.188ZM-69.4645 247.264C-77.5637 239.165 -84.0214 229.801 -88.8445 219.139L-97.9555 223.261C-92.6452 234.999 -85.503 245.368 -76.5355 254.336L-69.4645 247.264ZM-88.7878 219.269C-93.3242 208.432 -95.6 196.957 -95.6 184.8H-105.6C-105.6 198.243 -103.076 211.034 -98.0122 223.131L-88.7878 219.269ZM-95.6 184.8C-95.6 172.362 -93.3188 160.755 -88.7878 149.931L-98.0122 146.069C-103.081 158.178 -105.6 171.105 -105.6 184.8H-95.6ZM-88.7878 149.931C-84.2228 139.025 -78.0427 129.714 -70.2645 121.936L-77.3355 114.864C-86.0906 123.62 -92.9772 134.041 -98.0122 146.069L-88.7878 149.931ZM-70.2645 121.936C-62.1845 113.856 -52.7035 107.4 -41.7792 102.573L-45.8208 93.4266C-57.8299 98.7329 -68.3488 105.878 -77.3355 114.864L-70.2645 121.936ZM-41.7792 102.573C-30.9627 97.7941 -19.5191 95.4 -7.39999 95.4V85.4C-20.8809 85.4 -33.7039 88.0726 -45.8208 93.4266L-41.7792 102.573ZM23.0016 214.268C30.8716 206.096 34.8 196.035 34.8 184.4H24.8C24.8 193.565 21.7951 201.104 15.7984 207.332L23.0016 214.268ZM34.8 184.4C34.8 178.705 33.7475 173.348 31.5808 168.396L22.4192 172.404C23.9859 175.985 24.8 179.962 24.8 184.4H34.8ZM31.6234 168.496C29.5054 163.353 26.469 158.798 22.5356 154.864L15.4645 161.936C18.4644 164.935 20.7613 168.381 22.3766 172.304L31.6234 168.496ZM22.4023 154.736C14.0164 146.949 4.00313 143 -7.39999 143V153C1.46354 153 9.05022 155.984 15.5978 162.064L22.4023 154.736ZM-7.39999 143C-18.8068 143 -28.7223 146.954 -36.8682 154.798L-29.9318 162.002C-23.6777 155.979 -16.2598 153 -7.39999 153V143ZM-37.1228 155.062C-44.8312 163.66 -48.8 173.632 -48.8 184.8H-38.8C-38.8 176.234 -35.8355 168.607 -29.6771 161.738L-37.1228 155.062ZM-48.8 184.8C-48.8 196.262 -44.6742 206.297 -36.5992 214.671L-29.4008 207.729C-35.7258 201.17 -38.8 193.605 -38.8 184.8H-48.8ZM-36.4682 214.802C-28.2955 222.672 -18.2354 226.6 -6.59999 226.6V216.6C-15.7646 216.6 -23.3045 213.595 -29.5318 207.598L-36.4682 214.802ZM-6.59999 226.6C-1.13276 226.6 4.17974 225.533 9.30376 223.423L5.49625 214.177C1.5536 215.8 -2.46722 216.6 -6.59999 216.6V226.6ZM9.30376 223.423C14.4475 221.305 19.0021 218.269 22.9355 214.336L15.8645 207.264C12.8646 210.264 9.41917 212.561 5.49625 214.177L9.30376 223.423ZM22.0597 99.1785C26.7625 93.4679 28.6948 86.1659 28.3968 77.8215L18.4032 78.1785C18.6385 84.7674 17.1041 89.4654 14.3404 92.8215L22.0597 99.1785ZM28.4 78C28.4 73.0953 27.4769 68.5017 25.5398 64.3047L16.4602 68.4953C17.7231 71.2316 18.4 74.3713 18.4 78L28.4 78ZM25.7087 64.7183C24.1148 60.2553 21.5674 56.2963 18.1355 52.8645L11.0645 59.9355C13.4993 62.3703 15.2186 65.078 16.2913 68.0817L25.7087 64.7183ZM18.0561 52.7868C10.9867 46.0247 2.41318 42.6 -7.39999 42.6V52.6C-0.1465 52.6 5.94667 55.0419 11.1439 60.0132L18.0561 52.7868ZM-7.39999 42.6C-16.992 42.6 -25.4199 46.0565 -32.4561 52.7868L-25.5439 60.0132C-20.3134 55.0102 -14.3413 52.6 -7.39999 52.6V42.6ZM-32.7629 53.1075C-39.1353 60.3902 -42.4 68.8846 -42.4 78.4H-32.4C-32.4 71.3821 -30.0647 65.2098 -25.2371 59.6925L-32.7629 53.1075ZM-42.3873 78.7562C-41.7903 87.1143 -39.0399 94.1662 -33.6197 99.2477L-26.7803 91.9523C-29.8934 89.0338 -31.943 84.619 -32.4127 78.0438L-42.3873 78.7562ZM-33.2327 91.6247L-72.0327 121.225L-65.9673 129.175L-27.1673 99.5753L-33.2327 91.6247ZM-64.9038 122.333C-68.4629 117.248 -71.5099 111.915 -74.0482 106.331L-83.1518 110.469C-80.3568 116.618 -77.0038 122.485 -73.0962 128.067L-64.9038 122.333ZM-73.9846 106.477C-77.7307 97.4863 -79.6 88.1399 -79.6 78.4H-89.6C-89.6 89.4601 -87.4693 100.114 -83.2154 110.323L-73.9846 106.477ZM-79.6 78.4C-79.6 68.0912 -77.7176 58.634 -74.0043 49.9696L-83.1957 46.0304C-87.4824 56.0327 -89.6 66.8421 -89.6 78.4H-79.6ZM-73.9846 49.9231C-70.2204 40.8889 -65.1084 33.1795 -58.6645 26.7355L-65.7355 19.6645C-73.1582 27.0872 -78.9796 35.9111 -83.2154 46.0769L-73.9846 49.9231ZM-58.6645 26.7355C-52.172 20.243 -44.5381 14.9779 -35.7212 10.9474L-39.8788 1.85262C-49.7285 6.35536 -58.3614 12.2903 -65.7355 19.6645L-58.6645 26.7355ZM-35.7693 10.969C-26.8186 6.99096 -17.3781 4.99998 -7.39999 4.99998V-5.00002C-18.7552 -5.00002 -29.5814 -2.72433 -39.8307 1.83094L-35.7693 10.969ZM-7.39999 4.99998C2.90876 4.99998 12.366 6.8824 21.0304 10.5957L24.9696 1.40427C14.9673 -2.88243 4.15792 -5.00002 -7.39999 -5.00002V4.99998ZM21.0769 10.6154C30.0709 14.3629 37.7594 19.5815 44.1984 26.2682L51.4016 19.3318C43.974 11.6185 35.1291 5.63712 24.9231 1.38461L21.0769 10.6154ZM44.2645 26.3355C50.732 32.803 55.8458 40.3997 59.6043 49.1696L68.7957 45.2304C64.5542 35.3336 58.7347 26.6636 51.3355 19.2645L44.2645 26.3355ZM59.6526 49.2788C63.6092 57.9338 65.6 67.2217 65.6 77.2H75.6C75.6 65.8449 73.3241 55.1328 68.7474 45.1212L59.6526 49.2788ZM65.6 77.2C65.6 87.5087 63.7176 96.966 60.0043 105.63L69.1957 109.57C73.4824 99.5673 75.6 88.7579 75.6 77.2H65.6ZM59.9799 105.688C56.968 112.967 53.1064 119.301 48.4159 124.732L55.9841 131.268C61.4269 124.966 65.832 117.7 69.2201 109.512L59.9799 105.688ZM55.6268 124.359L21.6268 92.359L14.7732 99.641L48.7732 131.641L55.6268 124.359Z" fill="#404040" fill-opacity="0.2" mask="url(#path-1-outside-1_2146_2079)"/>
<mask id="path-3-outside-2_2146_2079" maskUnits="userSpaceOnUse" x="136" y="-5" width="400" height="289" fill="black">
<rect fill="white" x="136" y="-5" width="400" height="289"/>
<path d="M199 184.8C199.533 196 203.133 204.667 209.8 210.8C213.533 214 217.533 216.667 221.8 218.8C226.067 220.667 230.733 221.6 235.8 221.6C245.4 221.067 253.8 217.333 261 210.4C264.467 206.933 267 203.467 268.6 200C270.2 196.533 271.267 191.467 271.8 184.8C271.533 174.933 267.8 166.4 260.6 159.2C253.667 152.267 245.133 148.667 235 148.4H141.4L141.4 -2.09808e-05L271.8 -2.09808e-05V57.2L198.6 57.2V91.2H235C247.267 90.6667 259.267 92.6667 271 97.2C282.733 101.733 293.133 108.533 302.2 117.6C311.267 126.933 318.067 137.467 322.6 149.2C327.4 160.667 329.8 172.4 329.8 184.4C329.8 196.4 327.533 208.133 323 219.6C318.467 231.067 311.667 241.333 302.6 250.4C293.533 259.733 283.133 266.8 271.4 271.6C259.933 276.133 248.2 278.4 236.2 278.4C224.467 278.4 212.733 276.267 201 272C189.267 267.467 178.867 260.667 169.8 251.6C160.467 242.533 153.4 232.267 148.6 220.8C144.067 209.067 141.667 197.067 141.4 184.8H199ZM342.972 121.2L429.372 -2.09808e-05L466.572 -2.09808e-05V45.2L412.972 121.2H473.772V91.2L530.972 91.2V278H473.772V178.4L342.972 178.4V121.2Z"/>
</mask>
<path d="M199 184.8L203.994 184.562L203.768 179.8H199V184.8ZM209.8 210.8L206.415 214.48L206.479 214.539L206.546 214.596L209.8 210.8ZM221.8 218.8L219.564 223.272L219.679 223.329L219.796 223.381L221.8 218.8ZM235.8 221.6V226.6H235.939L236.077 226.592L235.8 221.6ZM261 210.4L264.468 214.002L264.502 213.969L264.536 213.936L261 210.4ZM268.6 200L273.14 202.095V202.095L268.6 200ZM271.8 184.8L276.784 185.199L276.805 184.932L276.798 184.665L271.8 184.8ZM235 148.4L235.132 143.402L235.066 143.4H235V148.4ZM141.4 148.4H136.4V153.4H141.4V148.4ZM141.4 -2.09808e-05V-5.00002H136.4L136.4 -2.09808e-05L141.4 -2.09808e-05ZM271.8 -2.09808e-05L276.8 -2.09808e-05V-5.00002H271.8V-2.09808e-05ZM271.8 57.2V62.2H276.8V57.2H271.8ZM198.6 57.2V52.2H193.6V57.2H198.6ZM198.6 91.2H193.6V96.2H198.6V91.2ZM235 91.2V96.2H235.109L235.217 96.1953L235 91.2ZM271 97.2L269.198 101.864L271 97.2ZM302.2 117.6L305.786 114.116L305.761 114.09L305.736 114.064L302.2 117.6ZM322.6 149.2L317.936 151.002L317.961 151.067L317.988 151.131L322.6 149.2ZM323 219.6L327.65 221.438L323 219.6ZM302.6 250.4L299.064 246.864L299.039 246.89L299.014 246.916L302.6 250.4ZM271.4 271.6L273.238 276.25L273.266 276.239L273.293 276.228L271.4 271.6ZM201 272L199.198 276.664L199.244 276.682L199.291 276.699L201 272ZM169.8 251.6L173.336 248.064L173.31 248.039L173.284 248.014L169.8 251.6ZM148.6 220.8L143.936 222.602L143.961 222.667L143.988 222.731L148.6 220.8ZM141.4 184.8V179.8H136.29L136.401 184.909L141.4 184.8ZM194.006 185.038C194.586 197.222 198.561 207.254 206.415 214.48L213.185 207.12C207.706 202.079 204.481 194.778 203.994 184.562L194.006 185.038ZM206.546 214.596C210.58 218.054 214.92 220.95 219.564 223.272L224.036 214.328C220.146 212.383 216.486 209.946 213.054 207.004L206.546 214.596ZM219.796 223.381C224.748 225.547 230.105 226.6 235.8 226.6V216.6C231.362 216.6 227.385 215.786 223.804 214.219L219.796 223.381ZM236.077 226.592C246.924 225.99 256.443 221.73 264.468 214.002L257.532 206.798C251.157 212.937 243.876 216.144 235.523 216.608L236.077 226.592ZM264.536 213.936C268.306 210.165 271.234 206.225 273.14 202.095L264.06 197.905C262.766 200.708 260.627 203.702 257.464 206.864L264.536 213.936ZM273.14 202.095C275.106 197.836 276.234 192.08 276.784 185.199L266.816 184.401C266.3 190.854 265.294 195.231 264.06 197.905L273.14 202.095ZM276.798 184.665C276.496 173.475 272.208 163.737 264.136 155.664L257.064 162.736C263.392 169.063 266.571 176.391 266.802 184.935L276.798 184.665ZM264.136 155.664C256.263 147.792 246.497 143.701 235.132 143.402L234.868 153.398C243.77 153.632 251.07 156.741 257.064 162.736L264.136 155.664ZM235 143.4H141.4V153.4H235V143.4ZM146.4 148.4V-2.09808e-05L136.4 -2.09808e-05V148.4H146.4ZM141.4 4.99998L271.8 4.99998V-5.00002L141.4 -5.00002V4.99998ZM266.8 -2.09808e-05V57.2H276.8V-2.09808e-05L266.8 -2.09808e-05ZM271.8 52.2L198.6 52.2V62.2L271.8 62.2V52.2ZM193.6 57.2V91.2H203.6V57.2L193.6 57.2ZM198.6 96.2H235V86.2H198.6V96.2ZM235.217 96.1953C246.778 95.6926 258.092 97.5728 269.198 101.864L272.802 92.536C260.442 87.7605 247.755 85.6407 234.783 86.2047L235.217 96.1953ZM269.198 101.864C280.268 106.141 290.081 112.552 298.664 121.136L305.736 114.064C296.186 104.515 285.198 97.3255 272.802 92.536L269.198 101.864ZM298.614 121.084C307.228 129.952 313.653 139.918 317.936 151.002L327.264 147.398C322.48 135.016 315.305 123.915 305.786 114.116L298.614 121.084ZM317.988 151.131C322.541 162.008 324.8 173.087 324.8 184.4H334.8C334.8 171.713 332.259 159.325 327.212 147.269L317.988 151.131ZM324.8 184.4C324.8 195.753 322.659 206.864 318.35 217.762L327.65 221.438C332.408 209.403 334.8 197.047 334.8 184.4H324.8ZM318.35 217.762C314.078 228.567 307.667 238.262 299.064 246.864L306.136 253.936C315.666 244.405 322.855 233.566 327.65 221.438L318.35 217.762ZM299.014 246.916C290.414 255.769 280.586 262.44 269.507 266.972L273.293 276.228C285.681 271.16 296.653 263.698 306.186 253.884L299.014 246.916ZM269.562 266.95C258.664 271.259 247.553 273.4 236.2 273.4V283.4C248.847 283.4 261.203 281.008 273.238 276.25L269.562 266.95ZM236.2 273.4C225.086 273.4 213.93 271.381 202.709 267.301L199.291 276.699C211.537 281.152 223.847 283.4 236.2 283.4V273.4ZM202.802 267.336C191.732 263.059 181.919 256.648 173.336 248.064L166.264 255.136C175.814 264.685 186.802 271.874 199.198 276.664L202.802 267.336ZM173.284 248.014C164.411 239.395 157.74 229.685 153.212 218.869L143.988 222.731C149.06 234.849 156.522 245.672 166.316 255.186L173.284 248.014ZM153.264 218.998C148.934 207.792 146.653 196.364 146.399 184.691L136.401 184.909C136.681 197.77 139.199 210.342 143.936 222.602L153.264 218.998ZM141.4 189.8H199V179.8H141.4V189.8ZM342.972 121.2L338.9 118.298L337.972 119.6V121.2H342.972ZM429.372 -2.09808e-05V-5.00002H426.796L425.3 -2.9024L429.372 -2.09808e-05ZM466.572 -2.09808e-05L471.572 -2.09808e-05V-5.00002H466.572V-2.09808e-05ZM466.572 45.2L470.658 48.0817L471.572 46.7858V45.2H466.572ZM412.972 121.2L408.886 118.318L403.327 126.2H412.972V121.2ZM473.772 121.2V126.2H478.772V121.2H473.772ZM473.772 91.2V86.2H468.772V91.2H473.772ZM530.972 91.2H535.972V86.2H530.972V91.2ZM530.972 278V283H535.972V278H530.972ZM473.772 278H468.772V283H473.772V278ZM473.772 178.4H478.772V173.4H473.772V178.4ZM342.972 178.4H337.972V183.4H342.972V178.4ZM347.043 124.102L433.443 2.90236L425.3 -2.9024L338.9 118.298L347.043 124.102ZM429.372 4.99998L466.572 4.99998V-5.00002L429.372 -5.00002V4.99998ZM461.572 -2.09808e-05V45.2H471.572V-2.09808e-05L461.572 -2.09808e-05ZM462.486 42.3183L408.886 118.318L417.058 124.082L470.658 48.0817L462.486 42.3183ZM412.972 126.2H473.772V116.2H412.972V126.2ZM478.772 121.2V91.2H468.772V121.2H478.772ZM473.772 96.2L530.972 96.2V86.2L473.772 86.2V96.2ZM525.972 91.2V278H535.972V91.2H525.972ZM530.972 273H473.772V283H530.972V273ZM478.772 278V178.4H468.772V278H478.772ZM473.772 173.4L342.972 173.4V183.4L473.772 183.4V173.4ZM347.972 178.4V121.2H337.972V178.4H347.972Z" fill="#404040" fill-opacity="0.2" mask="url(#path-3-outside-2_2146_2079)"/>
<mask id="path-5-outside-3_2146_2079" maskUnits="userSpaceOnUse" x="581" y="-5" width="199" height="288" fill="black">
<rect fill="white" x="581" y="-5" width="199" height="288"/>
<path d="M586.8 121.2L673.2 -2.09808e-05L710.4 -2.09808e-05V45.2L656.8 121.2L717.6 121.2V91.2H774.8V278H717.6V178.4H586.8V121.2Z"/>
</mask>
<path d="M586.8 121.2L582.729 118.298L581.8 119.6V121.2H586.8ZM673.2 -2.09808e-05V-5.00002H670.624L669.129 -2.9024L673.2 -2.09808e-05ZM710.4 -2.09808e-05L715.4 -2.09808e-05V-5.00002H710.4V-2.09808e-05ZM710.4 45.2L714.486 48.0817L715.4 46.7858V45.2H710.4ZM656.8 121.2L652.714 118.318L647.155 126.2H656.8V121.2ZM717.6 121.2V126.2H722.6V121.2H717.6ZM717.6 91.2V86.2H712.6V91.2H717.6ZM774.8 91.2H779.8V86.2H774.8V91.2ZM774.8 278V283H779.8V278H774.8ZM717.6 278H712.6V283H717.6V278ZM717.6 178.4H722.6V173.4H717.6V178.4ZM586.8 178.4H581.8V183.4H586.8V178.4ZM590.871 124.102L677.271 2.90236L669.129 -2.9024L582.729 118.298L590.871 124.102ZM673.2 4.99998L710.4 4.99998V-5.00002L673.2 -5.00002V4.99998ZM705.4 -2.09808e-05V45.2H715.4V-2.09808e-05L705.4 -2.09808e-05ZM706.314 42.3183L652.714 118.318L660.886 124.082L714.486 48.0817L706.314 42.3183ZM656.8 126.2L717.6 126.2V116.2L656.8 116.2V126.2ZM722.6 121.2V91.2H712.6V121.2H722.6ZM717.6 96.2H774.8V86.2H717.6V96.2ZM769.8 91.2V278H779.8V91.2H769.8ZM774.8 273H717.6V283H774.8V273ZM722.6 278V178.4H712.6V278H722.6ZM717.6 173.4H586.8V183.4H717.6V173.4ZM591.8 178.4V121.2H581.8V178.4H591.8Z" fill="#404040" fill-opacity="0.2" mask="url(#path-5-outside-3_2146_2079)"/>
<mask id="path-7-outside-4_2146_2079" maskUnits="userSpaceOnUse" x="829" y="-5" width="129" height="288" fill="black">
<rect fill="white" x="829" y="-5" width="129" height="288"/>
<path d="M952.8 278H895.6V57.2L834.4 57.2V-2.09808e-05L952.8 -2.09808e-05V278Z"/>
</mask>
<path d="M952.8 278V283H957.8V278H952.8ZM895.6 278H890.6V283H895.6V278ZM895.6 57.2H900.6V52.2H895.6V57.2ZM834.4 57.2H829.4V62.2H834.4V57.2ZM834.4 -2.09808e-05V-5.00002L829.4 -5.00002V-2.09808e-05L834.4 -2.09808e-05ZM952.8 -2.09808e-05L957.8 -2.09808e-05V-5.00002H952.8V-2.09808e-05ZM952.8 273H895.6V283H952.8V273ZM900.6 278V57.2H890.6V278H900.6ZM895.6 52.2L834.4 52.2V62.2L895.6 62.2V52.2ZM839.4 57.2V-2.09808e-05L829.4 -2.09808e-05V57.2H839.4ZM834.4 4.99998L952.8 4.99998V-5.00002L834.4 -5.00002V4.99998ZM947.8 -2.09808e-05V278H957.8V-2.09808e-05L947.8 -2.09808e-05Z" fill="#404040" fill-opacity="0.2" mask="url(#path-7-outside-4_2146_2079)"/>
<mask id="path-9-outside-5_2146_2079" maskUnits="userSpaceOnUse" x="1004" y="-5" width="198" height="288" fill="black">
<rect fill="white" x="1004" y="-5" width="198" height="288"/>
<path d="M1102.6 90.4C1115.67 90.4 1127.93 92.8 1139.4 97.6C1150.87 102.4 1160.73 109.067 1169 117.6C1177.53 126.133 1184.2 136.133 1189 147.6C1194.07 158.8 1196.6 170.8 1196.6 183.6C1196.6 196.667 1194.2 208.933 1189.4 220.4C1184.87 231.867 1178.33 241.867 1169.8 250.4C1161.27 258.667 1151.27 265.333 1139.8 270.4C1128.6 275.467 1116.6 278 1103.8 278C1090.73 278 1078.47 275.6 1067 270.8C1055.53 266 1045.53 259.333 1037 250.8C1028.47 242.267 1021.67 232.4 1016.6 221.2C1011.8 209.733 1009.4 197.6 1009.4 184.8V181.2V93.6C1009.4 80.8 1011.8 68.8 1016.6 57.6C1021.67 46.1333 1028.47 36.1333 1037 27.6C1045.53 19.0666 1055.53 12.4 1067 7.59998C1078.47 2.53331 1090.73 -2.09808e-05 1103.8 -2.09808e-05C1116.6 -2.09808e-05 1128.73 2.53331 1140.2 7.59998C1151.67 12.6667 1161.67 19.4667 1170.2 28L1170.6 28.4C1143.4 55.8667 1129.67 69.4667 1129.4 69.2C1122.2 62.2667 1113.67 58.8 1103.8 58.8C1093.67 58.8 1085 62.1333 1077.8 68.8C1074.6 72.2667 1072.07 76 1070.2 80C1068.6 83.2 1067.67 89.0667 1067.4 97.6C1078.33 92.8 1090.07 90.4 1102.6 90.4ZM1129.4 210.8C1136.33 203.6 1139.8 194.8 1139.8 184.4C1139.8 179.333 1138.87 174.667 1137 170.4C1135.13 165.867 1132.47 161.867 1129 158.4C1121.53 151.467 1112.73 148 1102.6 148C1092.47 148 1083.8 151.467 1076.6 158.4C1069.67 166.133 1066.2 174.933 1066.2 184.8C1066.2 194.933 1069.8 203.733 1077 211.2C1084.2 218.133 1093 221.6 1103.4 221.6C1108.2 221.6 1112.87 220.667 1117.4 218.8C1121.93 216.933 1125.93 214.267 1129.4 210.8Z"/>
</mask>
<path d="M1139.4 97.6L1141.33 92.9878L1141.33 92.9878L1139.4 97.6ZM1169 117.6L1165.41 121.079L1165.44 121.107L1165.46 121.136L1169 117.6ZM1189 147.6L1184.39 149.531L1184.42 149.596L1184.44 149.661L1189 147.6ZM1189.4 220.4L1184.79 218.469L1184.77 218.515L1184.75 218.562L1189.4 220.4ZM1169.8 250.4L1173.28 253.991L1173.31 253.964L1173.34 253.936L1169.8 250.4ZM1139.8 270.4L1137.78 265.827L1137.76 265.835L1137.74 265.844L1139.8 270.4ZM1067 270.8L1068.93 266.188L1067 270.8ZM1037 250.8L1033.46 254.336L1037 250.8ZM1016.6 221.2L1011.99 223.131L1012.02 223.196L1012.04 223.261L1016.6 221.2ZM1016.6 57.6L1012.03 55.5792L1012.02 55.6047L1012 55.6304L1016.6 57.6ZM1037 27.6L1033.46 24.0644L1037 27.6ZM1067 7.59998L1068.93 12.2122L1068.98 12.1932L1069.02 12.1734L1067 7.59998ZM1140.2 7.59998L1142.22 3.02655L1142.22 3.02654L1140.2 7.59998ZM1170.2 28L1166.66 31.5355L1166.66 31.5356L1170.2 28ZM1170.6 28.4L1174.15 31.9182L1177.65 28.3827L1174.14 24.8644L1170.6 28.4ZM1129.4 69.2L1132.94 65.6645L1132.9 65.6311L1132.87 65.5984L1129.4 69.2ZM1077.8 68.8L1074.4 65.1312L1074.26 65.2645L1074.13 65.4086L1077.8 68.8ZM1070.2 80L1074.67 82.2361L1074.7 82.1756L1074.73 82.1144L1070.2 80ZM1067.4 97.6L1062.4 97.4438L1062.15 105.363L1069.41 102.178L1067.4 97.6ZM1129.4 210.8L1132.94 214.336L1132.97 214.302L1133 214.268L1129.4 210.8ZM1137 170.4L1132.38 172.304L1132.4 172.354L1132.42 172.404L1137 170.4ZM1129 158.4L1132.54 154.864L1132.47 154.799L1132.4 154.736L1129 158.4ZM1076.6 158.4L1073.13 154.798L1073 154.926L1072.88 155.062L1076.6 158.4ZM1077 211.2L1073.4 214.671L1073.47 214.737L1073.53 214.802L1077 211.2ZM1102.6 95.4C1115.04 95.4 1126.65 97.6812 1137.47 102.212L1141.33 92.9878C1129.22 87.9188 1116.3 85.4 1102.6 85.4V95.4ZM1137.47 102.212C1148.34 106.763 1157.63 113.054 1165.41 121.079L1172.59 114.121C1163.83 105.079 1153.39 98.0369 1141.33 92.9878L1137.47 102.212ZM1165.46 121.136C1173.52 129.195 1179.83 138.645 1184.39 149.531L1193.61 145.669C1188.57 133.621 1181.54 123.072 1172.54 114.064L1165.46 121.136ZM1184.44 149.661C1189.21 160.186 1191.6 171.481 1191.6 183.6H1201.6C1201.6 170.119 1198.93 157.414 1193.56 145.539L1184.44 149.661ZM1191.6 183.6C1191.6 196.038 1189.32 207.645 1184.79 218.469L1194.01 222.331C1199.08 210.221 1201.6 197.295 1201.6 183.6H1191.6ZM1184.75 218.562C1180.46 229.407 1174.3 238.825 1166.26 246.864L1173.34 253.936C1182.36 244.908 1189.27 234.327 1194.05 222.238L1184.75 218.562ZM1166.32 246.809C1158.23 254.642 1148.74 260.985 1137.78 265.827L1141.82 274.973C1153.8 269.681 1164.3 262.691 1173.28 253.991L1166.32 246.809ZM1137.74 265.844C1127.21 270.606 1115.92 273 1103.8 273V283C1117.28 283 1129.99 280.327 1141.86 274.956L1137.74 265.844ZM1103.8 273C1091.36 273 1079.75 270.719 1068.93 266.188L1065.07 275.412C1077.18 280.481 1090.1 283 1103.8 283V273ZM1068.93 266.188C1058.05 261.631 1048.6 255.324 1040.54 247.264L1033.46 254.336C1042.47 263.343 1053.02 270.369 1065.07 275.412L1068.93 266.188ZM1040.54 247.264C1032.44 239.165 1025.98 229.801 1021.16 219.139L1012.04 223.261C1017.35 234.999 1024.5 245.368 1033.46 254.336L1040.54 247.264ZM1021.21 219.269C1016.68 208.432 1014.4 196.957 1014.4 184.8H1004.4C1004.4 198.243 1006.92 211.034 1011.99 223.131L1021.21 219.269ZM1014.4 184.8V181.2H1004.4V184.8H1014.4ZM1014.4 181.2V93.6H1004.4V181.2H1014.4ZM1014.4 93.6C1014.4 81.4423 1016.68 70.116 1021.2 59.5696L1012 55.6304C1006.92 67.484 1004.4 80.1577 1004.4 93.6H1014.4ZM1021.17 59.6208C1026 48.6965 1032.46 39.2155 1040.54 31.1355L1033.46 24.0644C1024.48 33.0512 1017.33 43.5701 1012.03 55.5792L1021.17 59.6208ZM1040.54 31.1355C1048.6 23.0759 1058.05 16.7688 1068.93 12.2122L1065.07 2.98777C1053.02 8.03117 1042.47 15.0574 1033.46 24.0644L1040.54 31.1355ZM1069.02 12.1734C1079.82 7.39994 1091.4 4.99998 1103.8 4.99998V-5.00002C1090.07 -5.00002 1077.11 -2.33332 1064.98 3.02654L1069.02 12.1734ZM1103.8 4.99998C1115.92 4.99998 1127.36 7.39404 1138.18 12.1734L1142.22 3.02654C1130.1 -2.32742 1117.28 -5.00002 1103.8 -5.00002V4.99998ZM1138.18 12.1734C1149.1 17.0004 1158.58 23.4556 1166.66 31.5355L1173.74 24.4645C1164.75 15.4777 1154.23 8.33289 1142.22 3.02655L1138.18 12.1734ZM1166.66 31.5356L1167.06 31.9356L1174.14 24.8644L1173.74 24.4644L1166.66 31.5356ZM1167.05 24.8817C1153.45 38.6125 1143.23 48.8651 1136.38 55.6473C1132.95 59.0422 1130.39 61.5475 1128.68 63.1793C1127.81 64.0026 1127.21 64.5645 1126.83 64.8978C1126.62 65.0782 1126.56 65.1199 1126.6 65.0916C1126.62 65.0789 1126.66 65.0466 1126.73 65.0033C1126.78 64.9657 1126.91 64.8824 1127.08 64.7873C1127.2 64.7246 1127.63 64.4917 1128.24 64.3431C1128.49 64.2844 1130.93 63.6622 1132.94 65.6645L1125.86 72.7355C1127.88 74.7461 1130.34 74.1255 1130.6 74.0616C1131.24 73.9077 1131.69 73.6629 1131.84 73.5814C1132.21 73.3811 1132.5 73.1677 1132.61 73.0834C1132.89 72.8717 1133.19 72.6218 1133.44 72.4022C1133.97 71.9355 1134.69 71.264 1135.57 70.4207C1137.36 68.7191 1139.98 66.1578 1143.42 62.7527C1150.3 55.9349 1160.55 45.6541 1174.15 31.9182L1167.05 24.8817ZM1132.87 65.5984C1124.75 57.781 1114.98 53.8 1103.8 53.8V63.8C1112.35 63.8 1119.65 66.7523 1125.93 72.8016L1132.87 65.5984ZM1103.8 53.8C1092.45 53.8 1082.56 57.5783 1074.4 65.1312L1081.2 72.4688C1087.44 66.6883 1094.88 63.8 1103.8 63.8V53.8ZM1074.13 65.4086C1070.6 69.2281 1067.77 73.3871 1065.67 77.8856L1074.73 82.1144C1076.36 78.6128 1078.6 75.3052 1081.47 72.1914L1074.13 65.4086ZM1065.73 77.7639C1063.59 82.0461 1062.67 88.9231 1062.4 97.4438L1072.4 97.7562C1072.66 89.2102 1073.61 84.3539 1074.67 82.2361L1065.73 77.7639ZM1069.41 102.178C1079.68 97.6701 1090.72 95.4 1102.6 95.4V85.4C1089.41 85.4 1076.99 87.9299 1065.39 93.0218L1069.41 102.178ZM1133 214.268C1140.87 206.096 1144.8 196.035 1144.8 184.4H1134.8C1134.8 193.565 1131.8 201.104 1125.8 207.332L1133 214.268ZM1144.8 184.4C1144.8 178.705 1143.75 173.348 1141.58 168.396L1132.42 172.404C1133.99 175.985 1134.8 179.962 1134.8 184.4H1144.8ZM1141.62 168.496C1139.51 163.353 1136.47 158.798 1132.54 154.864L1125.46 161.936C1128.46 164.935 1130.76 168.381 1132.38 172.304L1141.62 168.496ZM1132.4 154.736C1124.02 146.949 1114 143 1102.6 143V153C1111.46 153 1119.05 155.984 1125.6 162.064L1132.4 154.736ZM1102.6 143C1091.19 143 1081.28 146.954 1073.13 154.798L1080.07 162.002C1086.32 155.979 1093.74 153 1102.6 153V143ZM1072.88 155.062C1065.17 163.66 1061.2 173.632 1061.2 184.8H1071.2C1071.2 176.234 1074.16 168.607 1080.32 161.738L1072.88 155.062ZM1061.2 184.8C1061.2 196.262 1065.33 206.297 1073.4 214.671L1080.6 207.729C1074.27 201.17 1071.2 193.605 1071.2 184.8H1061.2ZM1073.53 214.802C1081.7 222.672 1091.76 226.6 1103.4 226.6V216.6C1094.24 216.6 1086.7 213.595 1080.47 207.598L1073.53 214.802ZM1103.4 226.6C1108.87 226.6 1114.18 225.533 1119.3 223.423L1115.5 214.177C1111.55 215.8 1107.53 216.6 1103.4 216.6V226.6ZM1119.3 223.423C1124.45 221.305 1129 218.269 1132.94 214.336L1125.86 207.264C1122.86 210.264 1119.42 212.561 1115.5 214.177L1119.3 223.423Z" fill="#404040" fill-opacity="0.2" mask="url(#path-9-outside-5_2146_2079)"/>
<mask id="path-11-outside-6_2146_2079" maskUnits="userSpaceOnUse" x="1244" y="-5" width="198" height="288" fill="black">
<rect fill="white" x="1244" y="-5" width="198" height="288"/>
<path d="M1342.6 90.4C1355.67 90.4 1367.93 92.8 1379.4 97.6C1390.87 102.4 1400.73 109.067 1409 117.6C1417.53 126.133 1424.2 136.133 1429 147.6C1434.07 158.8 1436.6 170.8 1436.6 183.6C1436.6 196.667 1434.2 208.933 1429.4 220.4C1424.87 231.867 1418.33 241.867 1409.8 250.4C1401.27 258.667 1391.27 265.333 1379.8 270.4C1368.6 275.467 1356.6 278 1343.8 278C1330.73 278 1318.47 275.6 1307 270.8C1295.53 266 1285.53 259.333 1277 250.8C1268.47 242.267 1261.67 232.4 1256.6 221.2C1251.8 209.733 1249.4 197.6 1249.4 184.8C1249.4 171.733 1251.8 159.467 1256.6 148C1261.4 136.533 1267.93 126.667 1276.2 118.4C1284.73 109.867 1294.73 103.067 1306.2 98C1317.67 92.9333 1329.8 90.4 1342.6 90.4ZM1369.4 210.8C1376.33 203.6 1379.8 194.8 1379.8 184.4C1379.8 179.333 1378.87 174.667 1377 170.4C1375.13 165.867 1372.47 161.867 1369 158.4C1361.53 151.467 1352.73 148 1342.6 148C1332.47 148 1323.8 151.467 1316.6 158.4C1309.67 166.133 1306.2 174.933 1306.2 184.8C1306.2 194.933 1309.8 203.733 1317 211.2C1324.2 218.133 1333 221.6 1343.4 221.6C1348.2 221.6 1352.87 220.667 1357.4 218.8C1361.93 216.933 1365.93 214.267 1369.4 210.8ZM1368.2 96C1371.93 91.4667 1373.67 85.4667 1373.4 78C1373.4 73.7333 1372.6 69.8667 1371 66.4C1369.67 62.6666 1367.53 59.3333 1364.6 56.4C1358.47 50.5333 1351.13 47.6 1342.6 47.6C1334.33 47.6 1327.13 50.5333 1321 56.4C1315.4 62.8 1312.6 70.1333 1312.6 78.4C1313.13 85.8667 1315.53 91.6 1319.8 95.6L1281 125.2C1277.27 119.867 1274.07 114.267 1271.4 108.4C1267.4 98.8 1265.4 88.8 1265.4 78.4C1265.4 67.4667 1267.4 57.3333 1271.4 48C1275.4 38.4 1280.87 30.1333 1287.8 23.2C1294.73 16.2667 1302.87 10.6667 1312.2 6.39999C1321.8 2.13332 1331.93 -2.09808e-05 1342.6 -2.09808e-05C1353.53 -2.09808e-05 1363.67 1.99999 1373 6C1382.6 9.99999 1390.87 15.6 1397.8 22.8C1404.73 29.7333 1410.2 37.8667 1414.2 47.2C1418.47 56.5333 1420.6 66.5333 1420.6 77.2C1420.6 88.1333 1418.6 98.2667 1414.6 107.6C1411.4 115.333 1407.27 122.133 1402.2 128L1368.2 96Z"/>
</mask>
<path d="M1379.4 97.6L1381.33 92.9878L1381.33 92.9878L1379.4 97.6ZM1409 117.6L1405.41 121.079L1405.44 121.107L1405.46 121.136L1409 117.6ZM1429 147.6L1424.39 149.531L1424.42 149.596L1424.44 149.661L1429 147.6ZM1429.4 220.4L1424.79 218.469L1424.77 218.515L1424.75 218.562L1429.4 220.4ZM1409.8 250.4L1413.28 253.991L1413.31 253.964L1413.34 253.936L1409.8 250.4ZM1379.8 270.4L1377.78 265.827L1377.76 265.835L1377.74 265.844L1379.8 270.4ZM1307 270.8L1308.93 266.188L1307 270.8ZM1277 250.8L1273.46 254.336L1277 250.8ZM1256.6 221.2L1251.99 223.131L1252.02 223.196L1252.04 223.261L1256.6 221.2ZM1256.6 148L1261.21 149.931L1256.6 148ZM1276.2 118.4L1279.74 121.936L1276.2 118.4ZM1306.2 98L1308.22 102.573L1306.2 98ZM1369.4 210.8L1372.94 214.336L1372.97 214.302L1373 214.268L1369.4 210.8ZM1377 170.4L1372.38 172.304L1372.4 172.354L1372.42 172.404L1377 170.4ZM1369 158.4L1372.54 154.864L1372.47 154.799L1372.4 154.736L1369 158.4ZM1316.6 158.4L1313.13 154.798L1313 154.926L1312.88 155.062L1316.6 158.4ZM1317 211.2L1313.4 214.671L1313.47 214.737L1313.53 214.802L1317 211.2ZM1368.2 96L1364.34 92.8215L1361.37 96.4338L1364.77 99.641L1368.2 96ZM1373.4 78L1368.4 78V78.0893L1368.4 78.1785L1373.4 78ZM1371 66.4L1366.29 68.0817L1366.37 68.2922L1366.46 68.4953L1371 66.4ZM1364.6 56.4L1368.14 52.8645L1368.1 52.8252L1368.06 52.7868L1364.6 56.4ZM1321 56.4L1317.54 52.7868L1317.38 52.9403L1317.24 53.1075L1321 56.4ZM1312.6 78.4H1307.6V78.5783L1307.61 78.7562L1312.6 78.4ZM1319.8 95.6L1322.83 99.5753L1327.53 95.9924L1323.22 91.9523L1319.8 95.6ZM1281 125.2L1276.9 128.067L1279.89 132.335L1284.03 129.175L1281 125.2ZM1271.4 108.4L1266.78 110.323L1266.82 110.397L1266.85 110.469L1271.4 108.4ZM1271.4 48L1276 49.9696L1276.01 49.9464L1276.02 49.9231L1271.4 48ZM1287.8 23.2L1284.26 19.6645L1287.8 23.2ZM1312.2 6.39999L1310.17 1.83094L1310.15 1.84165L1310.12 1.85262L1312.2 6.39999ZM1373 6L1371.03 10.5957L1371.05 10.6057L1371.08 10.6154L1373 6ZM1397.8 22.8L1394.2 26.2682L1394.23 26.3022L1394.26 26.3355L1397.8 22.8ZM1414.2 47.2L1409.6 49.1696L1409.63 49.2245L1409.65 49.2788L1414.2 47.2ZM1414.6 107.6L1410 105.63L1409.99 105.659L1409.98 105.688L1414.6 107.6ZM1402.2 128L1398.77 131.641L1402.57 135.218L1405.98 131.268L1402.2 128ZM1342.6 95.4C1355.04 95.4 1366.65 97.6812 1377.47 102.212L1381.33 92.9878C1369.22 87.9188 1356.3 85.4 1342.6 85.4V95.4ZM1377.47 102.212C1388.34 106.763 1397.63 113.054 1405.41 121.079L1412.59 114.121C1403.83 105.079 1393.39 98.0369 1381.33 92.9878L1377.47 102.212ZM1405.46 121.136C1413.52 129.195 1419.83 138.645 1424.39 149.531L1433.61 145.669C1428.57 133.621 1421.54 123.072 1412.54 114.064L1405.46 121.136ZM1424.44 149.661C1429.21 160.186 1431.6 171.481 1431.6 183.6H1441.6C1441.6 170.119 1438.93 157.414 1433.56 145.539L1424.44 149.661ZM1431.6 183.6C1431.6 196.038 1429.32 207.645 1424.79 218.469L1434.01 222.331C1439.08 210.221 1441.6 197.295 1441.6 183.6H1431.6ZM1424.75 218.562C1420.46 229.407 1414.3 238.825 1406.26 246.864L1413.34 253.936C1422.36 244.908 1429.27 234.327 1434.05 222.238L1424.75 218.562ZM1406.32 246.809C1398.23 254.642 1388.74 260.985 1377.78 265.827L1381.82 274.973C1393.8 269.681 1404.3 262.691 1413.28 253.991L1406.32 246.809ZM1377.74 265.844C1367.21 270.606 1355.92 273 1343.8 273V283C1357.28 283 1369.99 280.327 1381.86 274.956L1377.74 265.844ZM1343.8 273C1331.36 273 1319.75 270.719 1308.93 266.188L1305.07 275.412C1317.18 280.481 1330.1 283 1343.8 283V273ZM1308.93 266.188C1298.05 261.631 1288.6 255.324 1280.54 247.264L1273.46 254.336C1282.47 263.343 1293.02 270.369 1305.07 275.412L1308.93 266.188ZM1280.54 247.264C1272.44 239.165 1265.98 229.801 1261.16 219.139L1252.04 223.261C1257.35 234.999 1264.5 245.368 1273.46 254.336L1280.54 247.264ZM1261.21 219.269C1256.68 208.432 1254.4 196.957 1254.4 184.8H1244.4C1244.4 198.243 1246.92 211.034 1251.99 223.131L1261.21 219.269ZM1254.4 184.8C1254.4 172.362 1256.68 160.755 1261.21 149.931L1251.99 146.069C1246.92 158.178 1244.4 171.105 1244.4 184.8H1254.4ZM1261.21 149.931C1265.78 139.025 1271.96 129.714 1279.74 121.936L1272.66 114.864C1263.91 123.62 1257.02 134.041 1251.99 146.069L1261.21 149.931ZM1279.74 121.936C1287.82 113.856 1297.3 107.4 1308.22 102.573L1304.18 93.4266C1292.17 98.7329 1281.65 105.878 1272.66 114.864L1279.74 121.936ZM1308.22 102.573C1319.04 97.7941 1330.48 95.4 1342.6 95.4V85.4C1329.12 85.4 1316.3 88.0726 1304.18 93.4266L1308.22 102.573ZM1373 214.268C1380.87 206.096 1384.8 196.035 1384.8 184.4H1374.8C1374.8 193.565 1371.8 201.104 1365.8 207.332L1373 214.268ZM1384.8 184.4C1384.8 178.705 1383.75 173.348 1381.58 168.396L1372.42 172.404C1373.99 175.985 1374.8 179.962 1374.8 184.4H1384.8ZM1381.62 168.496C1379.51 163.353 1376.47 158.798 1372.54 154.864L1365.46 161.936C1368.46 164.935 1370.76 168.381 1372.38 172.304L1381.62 168.496ZM1372.4 154.736C1364.02 146.949 1354 143 1342.6 143V153C1351.46 153 1359.05 155.984 1365.6 162.064L1372.4 154.736ZM1342.6 143C1331.19 143 1321.28 146.954 1313.13 154.798L1320.07 162.002C1326.32 155.979 1333.74 153 1342.6 153V143ZM1312.88 155.062C1305.17 163.66 1301.2 173.632 1301.2 184.8H1311.2C1311.2 176.234 1314.16 168.607 1320.32 161.738L1312.88 155.062ZM1301.2 184.8C1301.2 196.262 1305.33 206.297 1313.4 214.671L1320.6 207.729C1314.27 201.17 1311.2 193.605 1311.2 184.8H1301.2ZM1313.53 214.802C1321.7 222.672 1331.76 226.6 1343.4 226.6V216.6C1334.24 216.6 1326.7 213.595 1320.47 207.598L1313.53 214.802ZM1343.4 226.6C1348.87 226.6 1354.18 225.533 1359.3 223.423L1355.5 214.177C1351.55 215.8 1347.53 216.6 1343.4 216.6V226.6ZM1359.3 223.423C1364.45 221.305 1369 218.269 1372.94 214.336L1365.86 207.264C1362.86 210.264 1359.42 212.561 1355.5 214.177L1359.3 223.423ZM1372.06 99.1785C1376.76 93.4679 1378.69 86.1659 1378.4 77.8215L1368.4 78.1785C1368.64 84.7674 1367.1 89.4654 1364.34 92.8215L1372.06 99.1785ZM1378.4 78C1378.4 73.0953 1377.48 68.5017 1375.54 64.3047L1366.46 68.4953C1367.72 71.2316 1368.4 74.3713 1368.4 78L1378.4 78ZM1375.71 64.7183C1374.11 60.2553 1371.57 56.2963 1368.14 52.8645L1361.06 59.9355C1363.5 62.3703 1365.22 65.078 1366.29 68.0817L1375.71 64.7183ZM1368.06 52.7868C1360.99 46.0247 1352.41 42.6 1342.6 42.6V52.6C1349.85 52.6 1355.95 55.0419 1361.14 60.0132L1368.06 52.7868ZM1342.6 42.6C1333.01 42.6 1324.58 46.0565 1317.54 52.7868L1324.46 60.0132C1329.69 55.0102 1335.66 52.6 1342.6 52.6V42.6ZM1317.24 53.1075C1310.86 60.3902 1307.6 68.8846 1307.6 78.4H1317.6C1317.6 71.3821 1319.94 65.2098 1324.76 59.6925L1317.24 53.1075ZM1307.61 78.7562C1308.21 87.1143 1310.96 94.1662 1316.38 99.2477L1323.22 91.9523C1320.11 89.0338 1318.06 84.619 1317.59 78.0438L1307.61 78.7562ZM1316.77 91.6247L1277.97 121.225L1284.03 129.175L1322.83 99.5753L1316.77 91.6247ZM1285.1 122.333C1281.54 117.248 1278.49 111.915 1275.95 106.331L1266.85 110.469C1269.64 116.618 1273 122.485 1276.9 128.067L1285.1 122.333ZM1276.02 106.477C1272.27 97.4863 1270.4 88.1399 1270.4 78.4H1260.4C1260.4 89.4601 1262.53 100.114 1266.78 110.323L1276.02 106.477ZM1270.4 78.4C1270.4 68.0912 1272.28 58.634 1276 49.9696L1266.8 46.0304C1262.52 56.0327 1260.4 66.8421 1260.4 78.4H1270.4ZM1276.02 49.9231C1279.78 40.8889 1284.89 33.1795 1291.34 26.7355L1284.26 19.6645C1276.84 27.0872 1271.02 35.9111 1266.78 46.0769L1276.02 49.9231ZM1291.34 26.7355C1297.83 20.243 1305.46 14.9779 1314.28 10.9474L1310.12 1.85262C1300.27 6.35536 1291.64 12.2903 1284.26 19.6645L1291.34 26.7355ZM1314.23 10.969C1323.18 6.99096 1332.62 4.99998 1342.6 4.99998V-5.00002C1331.24 -5.00002 1320.42 -2.72433 1310.17 1.83094L1314.23 10.969ZM1342.6 4.99998C1352.91 4.99998 1362.37 6.8824 1371.03 10.5957L1374.97 1.40427C1364.97 -2.88243 1354.16 -5.00002 1342.6 -5.00002V4.99998ZM1371.08 10.6154C1380.07 14.3629 1387.76 19.5815 1394.2 26.2682L1401.4 19.3318C1393.97 11.6185 1385.13 5.63712 1374.92 1.38461L1371.08 10.6154ZM1394.26 26.3355C1400.73 32.803 1405.85 40.3997 1409.6 49.1696L1418.8 45.2304C1414.55 35.3336 1408.73 26.6636 1401.34 19.2645L1394.26 26.3355ZM1409.65 49.2788C1413.61 57.9338 1415.6 67.2217 1415.6 77.2H1425.6C1425.6 65.8449 1423.32 55.1328 1418.75 45.1212L1409.65 49.2788ZM1415.6 77.2C1415.6 87.5087 1413.72 96.966 1410 105.63L1419.2 109.57C1423.48 99.5673 1425.6 88.7579 1425.6 77.2H1415.6ZM1409.98 105.688C1406.97 112.967 1403.11 119.301 1398.42 124.732L1405.98 131.268C1411.43 124.966 1415.83 117.7 1419.22 109.512L1409.98 105.688ZM1405.63 124.359L1371.63 92.359L1364.77 99.641L1398.77 131.641L1405.63 124.359Z" fill="#404040" fill-opacity="0.2" mask="url(#path-11-outside-6_2146_2079)"/>
<mask id="path-13-outside-7_2146_2079" maskUnits="userSpaceOnUse" x="1486" y="-5" width="400" height="289" fill="black">
<rect fill="white" x="1486" y="-5" width="400" height="289"/>
<path d="M1549 184.8C1549.53 196 1553.13 204.667 1559.8 210.8C1563.53 214 1567.53 216.667 1571.8 218.8C1576.07 220.667 1580.73 221.6 1585.8 221.6C1595.4 221.067 1603.8 217.333 1611 210.4C1614.47 206.933 1617 203.467 1618.6 200C1620.2 196.533 1621.27 191.467 1621.8 184.8C1621.53 174.933 1617.8 166.4 1610.6 159.2C1603.67 152.267 1595.13 148.667 1585 148.4H1491.4V-2.09808e-05L1621.8 -2.09808e-05V57.2L1548.6 57.2V91.2H1585C1597.27 90.6667 1609.27 92.6667 1621 97.2C1632.73 101.733 1643.13 108.533 1652.2 117.6C1661.27 126.933 1668.07 137.467 1672.6 149.2C1677.4 160.667 1679.8 172.4 1679.8 184.4C1679.8 196.4 1677.53 208.133 1673 219.6C1668.47 231.067 1661.67 241.333 1652.6 250.4C1643.53 259.733 1633.13 266.8 1621.4 271.6C1609.93 276.133 1598.2 278.4 1586.2 278.4C1574.47 278.4 1562.73 276.267 1551 272C1539.27 267.467 1528.87 260.667 1519.8 251.6C1510.47 242.533 1503.4 232.267 1498.6 220.8C1494.07 209.067 1491.67 197.067 1491.4 184.8H1549ZM1692.97 121.2L1779.37 -2.09808e-05L1816.57 -2.09808e-05V45.2L1762.97 121.2H1823.77V91.2L1880.97 91.2V278H1823.77V178.4L1692.97 178.4V121.2Z"/>
</mask>
<path d="M1549 184.8L1553.99 184.562L1553.77 179.8H1549V184.8ZM1559.8 210.8L1556.41 214.48L1556.48 214.539L1556.55 214.596L1559.8 210.8ZM1571.8 218.8L1569.56 223.272L1569.68 223.329L1569.8 223.381L1571.8 218.8ZM1585.8 221.6V226.6H1585.94L1586.08 226.592L1585.8 221.6ZM1611 210.4L1614.47 214.002L1614.5 213.969L1614.54 213.936L1611 210.4ZM1618.6 200L1623.14 202.095V202.095L1618.6 200ZM1621.8 184.8L1626.78 185.199L1626.81 184.932L1626.8 184.665L1621.8 184.8ZM1585 148.4L1585.13 143.402L1585.07 143.4H1585V148.4ZM1491.4 148.4H1486.4V153.4H1491.4V148.4ZM1491.4 -2.09808e-05V-5.00002H1486.4V-2.09808e-05L1491.4 -2.09808e-05ZM1621.8 -2.09808e-05L1626.8 -2.09808e-05V-5.00002H1621.8V-2.09808e-05ZM1621.8 57.2V62.2H1626.8V57.2H1621.8ZM1548.6 57.2V52.2H1543.6V57.2H1548.6ZM1548.6 91.2H1543.6V96.2H1548.6V91.2ZM1585 91.2V96.2H1585.11L1585.22 96.1953L1585 91.2ZM1621 97.2L1619.2 101.864L1621 97.2ZM1652.2 117.6L1655.79 114.116L1655.76 114.09L1655.74 114.064L1652.2 117.6ZM1672.6 149.2L1667.94 151.002L1667.96 151.067L1667.99 151.131L1672.6 149.2ZM1673 219.6L1677.65 221.438L1673 219.6ZM1652.6 250.4L1649.06 246.864L1649.04 246.89L1649.01 246.916L1652.6 250.4ZM1621.4 271.6L1623.24 276.25L1623.27 276.239L1623.29 276.228L1621.4 271.6ZM1551 272L1549.2 276.664L1549.24 276.682L1549.29 276.699L1551 272ZM1519.8 251.6L1523.34 248.064L1523.31 248.039L1523.28 248.014L1519.8 251.6ZM1498.6 220.8L1493.94 222.602L1493.96 222.667L1493.99 222.731L1498.6 220.8ZM1491.4 184.8V179.8H1486.29L1486.4 184.909L1491.4 184.8ZM1544.01 185.038C1544.59 197.222 1548.56 207.254 1556.41 214.48L1563.19 207.12C1557.71 202.079 1554.48 194.778 1553.99 184.562L1544.01 185.038ZM1556.55 214.596C1560.58 218.054 1564.92 220.95 1569.56 223.272L1574.04 214.328C1570.15 212.383 1566.49 209.946 1563.05 207.004L1556.55 214.596ZM1569.8 223.381C1574.75 225.547 1580.1 226.6 1585.8 226.6V216.6C1581.36 216.6 1577.38 215.786 1573.8 214.219L1569.8 223.381ZM1586.08 226.592C1596.92 225.99 1606.44 221.73 1614.47 214.002L1607.53 206.798C1601.16 212.937 1593.88 216.144 1585.52 216.608L1586.08 226.592ZM1614.54 213.936C1618.31 210.165 1621.23 206.225 1623.14 202.095L1614.06 197.905C1612.77 200.708 1610.63 203.702 1607.46 206.864L1614.54 213.936ZM1623.14 202.095C1625.11 197.836 1626.23 192.08 1626.78 185.199L1616.82 184.401C1616.3 190.854 1615.29 195.231 1614.06 197.905L1623.14 202.095ZM1626.8 184.665C1626.5 173.475 1622.21 163.737 1614.14 155.664L1607.06 162.736C1613.39 169.063 1616.57 176.391 1616.8 184.935L1626.8 184.665ZM1614.14 155.664C1606.26 147.792 1596.5 143.701 1585.13 143.402L1584.87 153.398C1593.77 153.632 1601.07 156.741 1607.06 162.736L1614.14 155.664ZM1585 143.4H1491.4V153.4H1585V143.4ZM1496.4 148.4V-2.09808e-05L1486.4 -2.09808e-05V148.4H1496.4ZM1491.4 4.99998L1621.8 4.99998V-5.00002L1491.4 -5.00002V4.99998ZM1616.8 -2.09808e-05V57.2H1626.8V-2.09808e-05L1616.8 -2.09808e-05ZM1621.8 52.2L1548.6 52.2V62.2L1621.8 62.2V52.2ZM1543.6 57.2V91.2H1553.6V57.2L1543.6 57.2ZM1548.6 96.2H1585V86.2H1548.6V96.2ZM1585.22 96.1953C1596.78 95.6926 1608.09 97.5728 1619.2 101.864L1622.8 92.536C1610.44 87.7605 1597.76 85.6407 1584.78 86.2047L1585.22 96.1953ZM1619.2 101.864C1630.27 106.141 1640.08 112.552 1648.66 121.136L1655.74 114.064C1646.19 104.515 1635.2 97.3255 1622.8 92.536L1619.2 101.864ZM1648.61 121.084C1657.23 129.952 1663.65 139.918 1667.94 151.002L1677.26 147.398C1672.48 135.016 1665.31 123.915 1655.79 114.116L1648.61 121.084ZM1667.99 151.131C1672.54 162.008 1674.8 173.087 1674.8 184.4H1684.8C1684.8 171.713 1682.26 159.325 1677.21 147.269L1667.99 151.131ZM1674.8 184.4C1674.8 195.753 1672.66 206.864 1668.35 217.762L1677.65 221.438C1682.41 209.403 1684.8 197.047 1684.8 184.4H1674.8ZM1668.35 217.762C1664.08 228.567 1657.67 238.262 1649.06 246.864L1656.14 253.936C1665.67 244.405 1672.85 233.566 1677.65 221.438L1668.35 217.762ZM1649.01 246.916C1640.41 255.769 1630.59 262.44 1619.51 266.972L1623.29 276.228C1635.68 271.16 1646.65 263.698 1656.19 253.884L1649.01 246.916ZM1619.56 266.95C1608.66 271.259 1597.55 273.4 1586.2 273.4V283.4C1598.85 283.4 1611.2 281.008 1623.24 276.25L1619.56 266.95ZM1586.2 273.4C1575.09 273.4 1563.93 271.381 1552.71 267.301L1549.29 276.699C1561.54 281.152 1573.85 283.4 1586.2 283.4V273.4ZM1552.8 267.336C1541.73 263.059 1531.92 256.648 1523.34 248.064L1516.26 255.136C1525.81 264.685 1536.8 271.874 1549.2 276.664L1552.8 267.336ZM1523.28 248.014C1514.41 239.395 1507.74 229.685 1503.21 218.869L1493.99 222.731C1499.06 234.849 1506.52 245.672 1516.32 255.186L1523.28 248.014ZM1503.26 218.998C1498.93 207.792 1496.65 196.364 1496.4 184.691L1486.4 184.909C1486.68 197.77 1489.2 210.342 1493.94 222.602L1503.26 218.998ZM1491.4 189.8H1549V179.8H1491.4V189.8ZM1692.97 121.2L1688.9 118.298L1687.97 119.6V121.2H1692.97ZM1779.37 -2.09808e-05V-5.00002H1776.8L1775.3 -2.9024L1779.37 -2.09808e-05ZM1816.57 -2.09808e-05L1821.57 -2.09808e-05V-5.00002H1816.57V-2.09808e-05ZM1816.57 45.2L1820.66 48.0817L1821.57 46.7858V45.2H1816.57ZM1762.97 121.2L1758.89 118.318L1753.33 126.2H1762.97V121.2ZM1823.77 121.2V126.2H1828.77V121.2H1823.77ZM1823.77 91.2V86.2H1818.77V91.2H1823.77ZM1880.97 91.2H1885.97V86.2H1880.97V91.2ZM1880.97 278V283H1885.97V278H1880.97ZM1823.77 278H1818.77V283H1823.77V278ZM1823.77 178.4H1828.77V173.4H1823.77V178.4ZM1692.97 178.4H1687.97V183.4H1692.97V178.4ZM1697.04 124.102L1783.44 2.90236L1775.3 -2.9024L1688.9 118.298L1697.04 124.102ZM1779.37 4.99998L1816.57 4.99998V-5.00002L1779.37 -5.00002V4.99998ZM1811.57 -2.09808e-05V45.2H1821.57V-2.09808e-05L1811.57 -2.09808e-05ZM1812.49 42.3183L1758.89 118.318L1767.06 124.082L1820.66 48.0817L1812.49 42.3183ZM1762.97 126.2H1823.77V116.2H1762.97V126.2ZM1828.77 121.2V91.2H1818.77V121.2H1828.77ZM1823.77 96.2L1880.97 96.2V86.2L1823.77 86.2V96.2ZM1875.97 91.2V278H1885.97V91.2H1875.97ZM1880.97 273H1823.77V283H1880.97V273ZM1828.77 278V178.4H1818.77V278H1828.77ZM1823.77 173.4L1692.97 173.4V183.4L1823.77 183.4V173.4ZM1697.97 178.4V121.2H1687.97V178.4H1697.97Z" fill="#404040" fill-opacity="0.2" mask="url(#path-13-outside-7_2146_2079)"/>
</svg>
