<svg width="538" height="100" viewBox="0 0 538 100" fill="none" xmlns="http://www.w3.org/2000/svg">
<path fill-rule="evenodd" clip-rule="evenodd" d="M63.5476 96.5684H29.0434L0 30.293H34.5202L63.5476 96.5684Z" fill="#002D65"/>
<path fill-rule="evenodd" clip-rule="evenodd" d="M63.688 96.5679H29.1836L70.5886 0.132812H105.093L63.688 96.5679Z" fill="#4CB5B8"/>
<path fill-rule="evenodd" clip-rule="evenodd" d="M217.588 26.1246C215.929 27.2963 213.988 27.882 211.734 27.882C209.669 27.8815 207.509 27.7377 205.272 27.4408V13.3727C209.169 13.2504 211.234 13.1931 211.469 13.1931C217.197 13.1926 220.059 15.5702 220.059 20.3194C220.059 23.0159 219.246 24.9532 217.588 26.1246ZM229.183 5.76568C225.24 1.92448 218.854 1.07734e-06 210.06 1.07734e-06C208.34 -0.000227185 205.021 0.0358391 200.092 0.0871981C195.164 0.150655 192.159 0.180334 191.095 0.180334L191.095 61.7422H205.272V40.8073C206.743 40.9865 209.043 41.0751 212.189 41.0751C219.089 41.0746 224.644 39.0677 228.838 35.0501C233.032 31.0357 235.129 26.1545 235.129 20.4066C235.129 14.4853 233.141 9.60276 229.183 5.76568Z" fill="#002D65"/>
<path fill-rule="evenodd" clip-rule="evenodd" d="M257.71 35.6226L264.704 18.2087L271.62 35.6226H257.71ZM258.775 0.179688L233.002 61.7413H247.272L252.405 48.8139H276.942L282.074 61.7413H297.222L271.45 0.179688H258.775Z" fill="#002D65"/>
<path fill-rule="evenodd" clip-rule="evenodd" d="M305.202 61.7413H319.363V13.3719H344.62V0.179688H305.202V61.7413Z" fill="#002D65"/>
<path fill-rule="evenodd" clip-rule="evenodd" d="M386.87 26.1237L367.732 0.179688H353.477V61.7413H367.655V22.7776L384.835 46.5235H386.87L404.145 22.516V61.7413H418.323V0.179688H404.944L386.87 26.1237Z" fill="#002D65"/>
<path fill-rule="evenodd" clip-rule="evenodd" d="M450.997 35.6226L457.99 18.2087L464.908 35.6226H450.997ZM452.06 0.179688L426.287 61.7413H440.559L445.691 48.8139H470.227L475.361 61.7413H490.507L464.735 0.179688H452.06Z" fill="#002D65"/>
<path fill-rule="evenodd" clip-rule="evenodd" d="M486.611 0.179688V13.3719H505.217V61.7413H519.394V13.3719H538V0.179688H486.611Z" fill="#002D65"/>
<path fill-rule="evenodd" clip-rule="evenodd" d="M138.392 0.179688H124.215V61.7413H138.392V13.3719H160.989V61.7413H175.165V0.179688H160.989H138.392Z" fill="#002D65"/>
<path fill-rule="evenodd" clip-rule="evenodd" d="M128.376 92.5658H135.361L137.331 97.1745H139.323L132.732 81.8711H131.134L124.545 97.1745H126.428L128.376 92.5658ZM129.12 90.8267L131.878 84.3276L134.637 90.8267H129.12Z" fill="#002D65"/>
<path fill-rule="evenodd" clip-rule="evenodd" d="M144.118 89.2412L151.058 97.1752H153.446L146.264 89.1104L153.095 81.959H150.84L144.118 89.2412ZM143.745 81.959H141.885V97.1752H143.745V81.959Z" fill="#002D65"/>
<path fill-rule="evenodd" clip-rule="evenodd" d="M157.979 92.5658H164.964L166.934 97.1745H168.927L162.336 81.8711H160.738L154.148 97.1745H156.032L157.979 92.5658ZM158.724 90.8267L161.482 84.3276L164.241 90.8267H158.724Z" fill="#002D65"/>
<path fill-rule="evenodd" clip-rule="evenodd" d="M171.269 97.1752H183.18V100.001H184.932V95.436H182.851V81.959H173.831L173.677 85.0022C173.525 87.85 173.173 90.1326 172.648 91.8932C172.145 93.6533 171.641 94.8279 171.159 95.4365L169.518 95.436V100.001H171.269V97.1752ZM180.991 83.6981V95.436H173.218C173.613 94.9574 174.027 93.9144 174.487 92.3278C174.97 90.6325 175.275 88.6546 175.428 86.4158L175.626 83.6981H180.991Z" fill="#002D65"/>
<path fill-rule="evenodd" clip-rule="evenodd" d="M196.688 95.436H189.681V90.3492H195.813V88.6101H189.681V83.6981H196.47V81.959H187.82V97.1752H196.688V95.436Z" fill="#002D65"/>
<path fill-rule="evenodd" clip-rule="evenodd" d="M202.205 84.9373L207.701 92.4362H207.987L213.416 84.8718V97.1752H215.276V81.959H213.504L207.987 89.763L202.229 81.959H200.345V97.1752H202.205V84.9373Z" fill="#002D65"/>
<path fill-rule="evenodd" clip-rule="evenodd" d="M230.758 97.1752H232.619V81.959H230.976L221.67 94.1317V81.959H219.81V97.1752H221.452L230.758 85.0022V97.1752Z" fill="#002D65"/>
<path fill-rule="evenodd" clip-rule="evenodd" d="M246.193 81.9591C245.602 81.9591 245.031 81.9596 244.441 81.9381C243.282 81.9155 242.667 81.8945 242.601 81.8945C240.632 81.8941 239.142 82.3727 238.135 83.3292C237.129 84.2637 236.624 85.481 236.624 86.9373C236.625 87.915 236.909 88.7851 237.456 89.524C238.003 90.285 238.748 90.8285 239.646 91.1981L235.398 97.1753H237.5L241.463 91.5231H244.332V97.1753H246.193V81.9591ZM239.384 88.8063C238.857 88.2628 238.595 87.6111 238.595 86.8289C238.595 85.8716 238.923 85.09 239.58 84.5029C240.215 83.9158 241.112 83.6334 242.251 83.6334C242.625 83.6325 243.324 83.6551 244.331 83.6987L244.332 89.7844H241.245C240.523 89.6755 239.909 89.3496 239.384 88.8063Z" fill="#002D65"/>
<path fill-rule="evenodd" clip-rule="evenodd" d="M255.914 97.1752C256.044 97.1964 256.242 97.1971 256.504 97.1971C256.745 97.2183 256.986 97.2188 257.183 97.2188C258.257 97.24 258.956 97.2624 259.263 97.2624C261.125 97.2619 262.591 96.8492 263.62 96.0014C264.649 95.1535 265.153 93.958 265.153 92.415C265.153 91.023 264.693 89.937 263.752 89.1328C262.81 88.3282 261.474 87.9372 259.788 87.9372C259 87.9367 258.212 87.9808 257.446 88.0675V83.6981H264.255V81.959H255.585V97.1752C255.652 97.1752 255.762 97.1752 255.914 97.1752ZM262.373 90.4369C262.986 90.9368 263.291 91.6539 263.291 92.5453C263.292 93.5015 262.985 94.2409 262.35 94.7408C261.717 95.2626 260.774 95.5232 259.548 95.5232C258.958 95.5228 258.256 95.5018 257.446 95.4365V89.8057C258.257 89.7194 259 89.6758 259.679 89.6758C260.84 89.6754 261.738 89.937 262.373 90.4369Z" fill="#002D65"/>
<path fill-rule="evenodd" clip-rule="evenodd" d="M279.866 97.1752H281.726V81.959H280.084L270.779 94.1317V81.959H268.918V97.1752H270.56L279.866 85.0022V97.1752Z" fill="#002D65"/>
<path fill-rule="evenodd" clip-rule="evenodd" d="M293.55 96.1745C294.578 95.3708 295.082 94.2843 295.082 92.9147C295.082 91.9797 294.841 91.1977 294.359 90.5453C293.856 89.9149 293.177 89.5022 292.279 89.3283V89.263C292.98 88.9151 293.527 88.4152 293.921 87.7847C294.295 87.1545 294.49 86.5024 294.49 85.7849C294.492 84.524 294.096 83.5245 293.286 82.807C292.476 82.0891 291.403 81.7422 290.046 81.7422C289.084 81.7413 288.185 81.9378 287.331 82.3288C286.479 82.7194 285.799 83.2638 285.273 83.9591L286.368 85.1759C287.332 84.0458 288.492 83.4809 289.849 83.4809C290.682 83.4804 291.36 83.6984 291.863 84.133C292.367 84.5676 292.63 85.1764 292.63 85.9589C292.63 86.6763 292.367 87.3065 291.863 87.8067C291.36 88.2842 290.768 88.5241 290.09 88.5241L288.449 88.5236V90.2628H290.221C291.163 90.2628 291.907 90.4803 292.433 90.9366C292.959 91.3927 293.22 91.9797 293.22 92.7408C293.221 93.6317 292.914 94.3496 292.279 94.8709C291.645 95.3923 290.79 95.6534 289.74 95.6534C289.084 95.6529 288.404 95.4795 287.682 95.132C286.959 94.7833 286.346 94.3274 285.864 93.7625L284.836 95.0008C285.296 95.6965 285.974 96.2622 286.893 96.7187C287.792 97.175 288.776 97.3925 289.849 97.3925C291.295 97.3916 292.521 96.9787 293.55 96.1745Z" fill="#002D65"/>
<path fill-rule="evenodd" clip-rule="evenodd" d="M310.999 81.959H309.138V88.5459H300.707V81.959H298.847V97.1752H300.707V90.2848H309.138V97.1752H310.999V81.959Z" fill="#002D65"/>
<path fill-rule="evenodd" clip-rule="evenodd" d="M324.398 95.436H317.391V90.3492H323.523V88.6101H317.391V83.6981H324.179V81.959H315.53V97.1752H324.398V95.436Z" fill="#002D65"/>
<path fill-rule="evenodd" clip-rule="evenodd" d="M334.799 95.6529C333.024 95.6529 331.579 95.0884 330.463 93.9795C329.37 92.8494 328.821 91.3717 328.821 89.5672C328.822 87.7626 329.347 86.2853 330.419 85.1764C331.493 84.0458 332.849 83.4809 334.513 83.4809C336.024 83.4804 337.272 83.8502 338.301 84.6112L339.156 83.2202C337.996 82.2412 336.44 81.7422 334.492 81.7422C332.149 81.7413 330.288 82.4811 328.908 83.981C327.53 85.4371 326.851 87.3065 326.851 89.5672C326.851 91.9142 327.573 93.8061 328.996 95.2624C330.463 96.6742 332.324 97.3925 334.623 97.3925C335.588 97.3916 336.506 97.24 337.381 96.9358C338.258 96.6315 338.958 96.2186 339.461 95.697L338.718 94.3055C337.601 95.1969 336.287 95.6529 334.799 95.6529Z" fill="#002D65"/>
<path fill-rule="evenodd" clip-rule="evenodd" d="M346.93 90.4355H341.696V92.0653H346.93V90.4355Z" fill="#002D65"/>
<path fill-rule="evenodd" clip-rule="evenodd" d="M353.039 89.2412L359.978 97.1752H362.365L355.185 89.1104L362.015 81.959H359.76L353.039 89.2412ZM352.665 81.959H350.805V97.1752H352.665V81.959Z" fill="#002D65"/>
<path fill-rule="evenodd" clip-rule="evenodd" d="M366.044 95.1969C367.556 96.6536 369.415 97.3925 371.649 97.3925C373.883 97.3916 375.742 96.6536 377.231 95.1752C378.72 93.6753 379.464 91.8063 379.464 89.5672C379.465 87.2844 378.72 85.3939 377.231 83.9374C375.765 82.4806 373.904 81.7422 371.649 81.7422C369.393 81.7413 367.51 82.5028 366.044 84.0027C364.577 85.5017 363.832 87.3716 363.832 89.5672C363.832 91.849 364.577 93.7406 366.044 95.1969ZM367.467 85.1978C368.583 84.0458 369.962 83.4809 371.649 83.4809C373.291 83.4804 374.692 84.0679 375.809 85.22C376.926 86.3716 377.494 87.8283 377.494 89.5672C377.495 91.3059 376.947 92.7627 375.852 93.9143C374.78 95.0663 373.378 95.6534 371.649 95.6534C370.006 95.6529 368.605 95.0668 367.488 93.9143C366.373 92.7184 365.802 91.2845 365.802 89.5672C365.804 87.8062 366.351 86.3499 367.467 85.1978Z" fill="#002D65"/>
<path fill-rule="evenodd" clip-rule="evenodd" d="M384.654 84.9373L390.15 92.4362H390.435L395.864 84.8718V97.1752H397.725V81.959H395.952L390.435 89.763L384.677 81.959H382.793V97.1752H384.654V84.9373Z" fill="#002D65"/>
<path fill-rule="evenodd" clip-rule="evenodd" d="M414.301 81.959H402.258V97.1752H404.119V83.6981H412.438V97.1752H414.301V81.959Z" fill="#002D65"/>
<path fill-rule="evenodd" clip-rule="evenodd" d="M427.699 95.436H420.692V90.3492H426.824V88.6101H420.692V83.6981H427.481V81.959H418.832V97.1752H427.699V95.436Z" fill="#002D65"/>
<path fill-rule="evenodd" clip-rule="evenodd" d="M434.64 97.1752H436.501V83.6981H441.865V81.959H429.276V83.6981H434.64V97.1752Z" fill="#002D65"/>
<path fill-rule="evenodd" clip-rule="evenodd" d="M453.185 95.436H446.178V90.3492H452.31V88.6101H446.178V83.6981H452.967V81.959H444.317V97.1752H453.185V95.436Z" fill="#002D65"/>
<path fill-rule="evenodd" clip-rule="evenodd" d="M468.996 81.959H467.135V88.5459H458.705V81.959H456.844V97.1752H458.705V90.2848H467.135V97.1752H468.996V81.959Z" fill="#002D65"/>
<path fill-rule="evenodd" clip-rule="evenodd" d="M485.788 100.001H487.54V95.436H485.459V81.959H483.599V95.436H475.388V81.959H473.527V97.1752H485.788V100.001Z" fill="#002D65"/>
<path fill-rule="evenodd" clip-rule="evenodd" d="M501.378 97.1752H503.239V81.959H501.597L492.291 94.1317V81.959H490.431V97.1752H492.073L501.378 85.0022V97.1752Z" fill="#002D65"/>
<path fill-rule="evenodd" clip-rule="evenodd" d="M518.718 97.1742H520.579V81.958H518.937L509.631 94.1308V81.958H507.771V97.1742H509.413L518.718 85.0012V97.1742ZM511.536 80.4586C512.259 80.9585 513.2 81.1979 514.317 81.1979C515.389 81.197 516.287 80.9368 517.053 80.4369C517.798 79.9372 518.213 79.2849 518.323 78.4809L516.572 78.4805C516.354 79.4154 515.608 79.8936 514.317 79.8936C513.113 79.8932 512.324 79.4154 511.974 78.4809L510.223 78.4805C510.355 79.3061 510.792 79.9587 511.536 80.4586Z" fill="#002D65"/>
</svg>
