<svg width="81" height="80" viewBox="0 0 81 80" fill="none" xmlns="http://www.w3.org/2000/svg">
<g clip-path="url(#clip0_816_25798)">
<path d="M16.602 0H17.227C20.225 0.242708 22.4942 1.52135 24.0349 3.83594C26.813 8.01094 25.438 13.6609 21.1255 16.0672C16.6942 18.5406 10.9411 16.6766 8.98329 11.9141C6.65829 6.26094 10.6208 0.35625 16.602 0Z" fill="url(#paint0_linear_816_25798)"/>
<path d="M0.5 30.6542V28.3886C0.835417 23.6584 2.98906 20.0355 6.96094 17.5198C6.97953 17.5085 7.00146 17.5038 7.02307 17.5067C7.04468 17.5095 7.06466 17.5197 7.07969 17.5355C12.5547 23.298 21.2578 23.3167 26.7328 17.5417C26.7483 17.5255 26.7687 17.515 26.7906 17.5118C26.8125 17.5087 26.8346 17.5132 26.8531 17.5245C30.725 19.9495 32.9781 23.6917 33.2844 28.2308C33.4375 30.5011 33.5391 32.8105 30.5234 32.8105C21.5828 32.8115 12.6417 32.812 3.7 32.812C1.98594 32.812 0.8125 32.4839 0.5 30.6542Z" fill="url(#paint1_linear_816_25798)"/>
<path d="M33.2891 80H2.63906C1.4349 79.7885 0.721875 79.0823 0.5 77.8812V39.9125C0.803125 38.3203 1.85313 37.8141 3.36875 37.8141C12.3458 37.813 21.3229 37.8125 30.3 37.8125C32.5516 37.8125 33.3125 38.6922 33.3141 40.9016C33.3234 53.9349 33.3151 66.9677 33.2891 80ZM15.8031 51.9625C15.8135 57.2552 15.8172 62.5479 15.8141 67.8406C15.813 68.4542 15.8797 68.9135 16.0141 69.2188C16.8281 71.0625 19.4828 71.0625 20.2766 69.2578C20.4255 68.9203 20.5 68.3359 20.5 67.5047C20.501 61.6891 20.5005 55.8734 20.4984 50.0578C20.4984 47.8781 19.4953 47.1844 17.3969 47.1859C16.2844 47.1875 14.25 46.9625 13.2609 47.3812C11.2953 48.2109 11.3672 50.9328 13.3297 51.7031C14.0156 51.9719 14.9391 51.8703 15.725 51.8828C15.7459 51.8832 15.7657 51.8918 15.7803 51.9067C15.7949 51.9216 15.8031 51.9416 15.8031 51.9625Z" fill="url(#paint2_linear_816_25798)"/>
<path d="M56.8813 80H38.0281L38.0078 50.3578C38.0078 50.3458 38.0128 50.3343 38.0215 50.3258C38.0303 50.3173 38.0423 50.3125 38.0547 50.3125C43.3297 50.3125 48.6068 50.3125 53.8859 50.3125C55.9391 50.3125 56.9016 51.0641 56.9047 53.1812C56.9161 62.1208 56.9083 71.0604 56.8813 80Z" fill="url(#paint3_linear_816_25798)"/>
<path d="M80.4984 64.9703V77.9C80.2682 79.0792 79.562 79.7792 78.3797 80H61.6219L61.6016 62.8578C61.6016 62.8462 61.6063 62.8351 61.6148 62.8269C61.6233 62.8187 61.6349 62.8141 61.6469 62.8141C66.9719 62.812 72.299 62.812 77.6281 62.8141C79.1672 62.8141 80.2281 63.3359 80.4984 64.9703Z" fill="url(#paint4_linear_816_25798)"/>
</g>
<defs>
<linearGradient id="paint0_linear_816_25798" x1="13.0546" y1="11.7895" x2="25.471" y2="-2.587" gradientUnits="userSpaceOnUse">
<stop stop-color="#002D65"/>
<stop offset="0.937991" stop-color="#4CB5B8"/>
</linearGradient>
<linearGradient id="paint1_linear_816_25798" x1="9.57928" y1="28.0211" x2="17.3361" y2="8.75726" gradientUnits="userSpaceOnUse">
<stop stop-color="#002D65"/>
<stop offset="0.937991" stop-color="#4CB5B8"/>
</linearGradient>
<linearGradient id="paint2_linear_816_25798" x1="9.57158" y1="66.795" x2="40.2543" y2="39.1722" gradientUnits="userSpaceOnUse">
<stop stop-color="#002D65"/>
<stop offset="0.937991" stop-color="#4CB5B8"/>
</linearGradient>
<linearGradient id="paint3_linear_816_25798" x1="43.2328" y1="70.7076" x2="63.9692" y2="55.4278" gradientUnits="userSpaceOnUse">
<stop stop-color="#002D65"/>
<stop offset="0.937991" stop-color="#4CB5B8"/>
</linearGradient>
<linearGradient id="paint4_linear_816_25798" x1="66.8251" y1="74.6202" x2="79.0384" y2="59.0799" gradientUnits="userSpaceOnUse">
<stop stop-color="#002D65"/>
<stop offset="0.937991" stop-color="#4CB5B8"/>
</linearGradient>
<clipPath id="clip0_816_25798">
<rect width="80" height="80" fill="white" transform="translate(0.5)"/>
</clipPath>
</defs>
</svg>
