<svg width="80" height="80" viewBox="0 0 80 80" fill="none" xmlns="http://www.w3.org/2000/svg">
<g clip-path="url(#clip0_816_25783)">
<path d="M39.698 0H40.323C42.9793 0.219792 44.9298 1.44375 46.1746 3.67188C48.0074 6.95 46.7793 11.1547 43.6011 13.0547C37.4621 16.7266 30.4105 9.87031 33.8777 3.62188C35.0683 1.475 37.0084 0.267708 39.698 0Z" fill="url(#paint0_linear_816_25783)"/>
<path d="M33.0404 16.4522C37.2513 19.4975 42.7732 19.4912 46.9122 16.4772C46.9447 16.4537 46.9839 16.4415 47.024 16.4424C47.064 16.4432 47.1026 16.4571 47.1341 16.4818C49.6831 18.5277 51.1732 21.1225 51.6044 24.2662C51.8185 25.8287 51.7154 27.924 51.7185 29.7209C51.7232 31.8115 51.02 32.8084 48.8497 32.8115C46.707 32.8147 44.5638 32.8147 42.42 32.8115C42.3997 32.8115 42.3803 32.8199 42.3659 32.8349C42.3516 32.8498 42.3435 32.8701 42.3435 32.8912V37.735C42.3435 37.754 42.3542 37.7723 42.3732 37.7858C42.3923 37.7993 42.4181 37.8068 42.445 37.8068C49.42 37.8141 56.3909 37.8193 63.3575 37.8225C66.9919 37.824 69.9466 40.4193 70.4075 44.0334C70.5294 44.9959 70.4544 46.3662 70.4857 47.5209C70.4862 47.5432 70.4936 47.565 70.5069 47.5836C70.5203 47.6022 70.5389 47.6168 70.5607 47.6256C73.8872 48.9365 75.8497 52.424 74.945 55.91C73.5825 61.1522 67.1513 63.024 63.2357 59.2631C59.4044 55.585 60.9404 49.6084 65.6904 47.6178C65.7118 47.6089 65.7302 47.594 65.7432 47.5749C65.7563 47.5557 65.7634 47.5331 65.7638 47.51C65.8122 45.1475 66.256 42.5037 62.9966 42.5022C56.1383 42.5001 49.2789 42.4996 42.4185 42.5006C42.3984 42.501 42.3794 42.5094 42.3653 42.524C42.3513 42.5386 42.3435 42.5583 42.3435 42.5787V47.5006C42.3435 47.5246 42.3523 47.5488 42.3688 47.57C42.3852 47.5912 42.4085 47.6084 42.4357 47.6193C44.4357 48.4402 45.8023 49.7871 46.5357 51.66C48.0513 55.5303 45.8716 59.8865 41.881 60.9818C37.2747 62.2444 32.5857 58.574 32.9888 53.6928C33.2185 50.9068 34.956 48.6678 37.5654 47.6225C37.5921 47.6114 37.615 47.5939 37.6312 47.5722C37.6473 47.5505 37.6559 47.5256 37.656 47.5006V42.5787C37.656 42.5597 37.6453 42.5414 37.6262 42.5279C37.6072 42.5144 37.5814 42.5068 37.5544 42.5068C30.7617 42.4985 23.9727 42.497 17.1872 42.5022C13.7341 42.5037 14.1716 44.9803 14.2357 47.5178C14.2362 47.541 14.2436 47.5635 14.2569 47.5827C14.2702 47.6019 14.2889 47.6168 14.3107 47.6256C17.6372 48.9365 19.5997 52.424 18.695 55.91C17.3325 61.1522 10.9013 63.024 6.98567 59.2631C3.15442 55.585 4.69036 49.61 9.4388 47.6178C9.46023 47.6088 9.47866 47.5938 9.49195 47.5744C9.50523 47.555 9.51281 47.5321 9.5138 47.5084C9.53671 46.7386 9.54505 45.9678 9.5388 45.1959C9.51588 42.4417 10.607 40.3443 12.8122 38.9037C14.2232 37.9818 15.6575 37.8178 17.5169 37.8162C24.2044 37.8121 30.8919 37.8115 37.5794 37.8147C37.5997 37.8147 37.6192 37.8063 37.6336 37.7913C37.6479 37.7764 37.656 37.7561 37.656 37.735V32.9303C37.656 32.8996 37.6441 32.8702 37.623 32.8485C37.6019 32.8268 37.5733 32.8147 37.5435 32.8147C35.5247 32.8115 33.4997 32.8115 31.4685 32.8147C30.6143 32.8157 30.0107 32.7386 29.6575 32.5834C28.5497 32.0959 28.2841 31.1553 28.2841 29.9428C28.281 28.0037 28.1622 25.7303 28.4263 24.0381C28.9034 20.9641 30.3992 18.436 32.9138 16.4537C32.9318 16.4397 32.954 16.4319 32.9768 16.4316C32.9997 16.4314 33.022 16.4386 33.0404 16.4522Z" fill="url(#paint1_linear_816_25783)"/>
<path d="M23.5535 79.9997H2.29414C0.673831 79.72 0.159769 78.6606 0.158206 77.1293C0.155081 75.1903 0.0363311 72.9184 0.300394 71.2247C0.776435 68.1507 2.27227 65.6231 4.78789 63.6418C4.80586 63.6278 4.82787 63.6199 4.85066 63.6194C4.87345 63.6188 4.89582 63.6256 4.91446 63.6387C9.13789 66.67 14.6301 66.7028 18.8285 63.634C18.8479 63.62 18.8714 63.6127 18.8956 63.6133C18.9198 63.6139 18.9434 63.6222 18.9629 63.6372C21.8077 65.8819 23.3499 68.8382 23.5895 72.5059C23.6436 73.3382 23.6316 75.8361 23.5535 79.9997Z" fill="url(#paint2_linear_816_25783)"/>
<path d="M77.724 79.9998H56.4349C56.3766 75.9592 56.3672 73.5238 56.4068 72.6936C56.5829 68.9529 58.1276 65.9352 61.0412 63.6404C61.0584 63.6269 61.0798 63.6195 61.102 63.6192C61.1243 63.6189 61.1462 63.6258 61.1646 63.6389C65.3896 66.6701 70.8802 66.7014 75.0802 63.6342C75.0991 63.6203 75.122 63.613 75.1454 63.6133C75.1688 63.6136 75.1914 63.6215 75.2099 63.6357C77.686 65.5889 79.175 68.0785 79.6771 71.1045C79.9568 72.7826 79.8428 74.9904 79.8443 76.8936C79.8443 78.5451 79.4678 79.6701 77.724 79.9998Z" fill="url(#paint3_linear_816_25783)"/>
<path d="M51.6793 79.9993H28.3105C28.2522 75.9326 28.2423 73.4972 28.2808 72.693C28.461 68.9472 30.0079 65.9274 32.9214 63.6337C32.939 63.6198 32.9605 63.6119 32.9825 63.6114C33.0045 63.6108 33.0259 63.6175 33.0433 63.6305C37.2386 66.6993 42.7496 66.679 46.9574 63.6321C46.9764 63.6186 46.999 63.6115 47.0219 63.6118C47.0447 63.6121 47.0665 63.6198 47.0839 63.6337C49.9433 65.8889 51.4876 68.8592 51.7167 72.5446C51.7688 73.3946 51.7563 75.8795 51.6793 79.9993Z" fill="url(#paint4_linear_816_25783)"/>
</g>
<defs>
<linearGradient id="paint0_linear_816_25783" x1="36.85" y1="9.67581" x2="47.0427" y2="-2.10758" gradientUnits="userSpaceOnUse">
<stop stop-color="#002D65"/>
<stop offset="0.937991" stop-color="#4CB5B8"/>
</linearGradient>
<linearGradient id="paint1_linear_816_25783" x1="24.2681" y1="47.2149" x2="51.9544" y2="-3.08404" gradientUnits="userSpaceOnUse">
<stop stop-color="#002D65"/>
<stop offset="0.937991" stop-color="#4CB5B8"/>
</linearGradient>
<linearGradient id="paint2_linear_816_25783" x1="6.62313" y1="74.8706" x2="17.2189" y2="57.2893" gradientUnits="userSpaceOnUse">
<stop stop-color="#002D65"/>
<stop offset="0.937991" stop-color="#4CB5B8"/>
</linearGradient>
<linearGradient id="paint3_linear_816_25783" x1="62.8741" y1="74.8707" x2="73.4723" y2="57.2935" gradientUnits="userSpaceOnUse">
<stop stop-color="#002D65"/>
<stop offset="0.937991" stop-color="#4CB5B8"/>
</linearGradient>
<linearGradient id="paint4_linear_816_25783" x1="34.7511" y1="74.8697" x2="45.3491" y2="57.289" gradientUnits="userSpaceOnUse">
<stop stop-color="#002D65"/>
<stop offset="0.937991" stop-color="#4CB5B8"/>
</linearGradient>
<clipPath id="clip0_816_25783">
<rect width="80" height="80" fill="white"/>
</clipPath>
</defs>
</svg>
