<svg width="80" height="80" viewBox="0 0 80 80" fill="none" xmlns="http://www.w3.org/2000/svg">
<g clip-path="url(#clip0_1177_13549)">
<path d="M16.102 0H16.727C19.725 0.242708 21.9942 1.52135 23.5349 3.83594C26.313 8.01094 24.938 13.6609 20.6255 16.0672C16.1942 18.5406 10.4411 16.6766 8.48329 11.9141C6.15829 6.26094 10.1208 0.35625 16.102 0Z" fill="#EEF0F2"/>
<path d="M0 30.6542V28.3886C0.335417 23.6584 2.48906 20.0355 6.46094 17.5198C6.47953 17.5085 6.50146 17.5038 6.52307 17.5067C6.54468 17.5095 6.56466 17.5197 6.57969 17.5355C12.0547 23.298 20.7578 23.3167 26.2328 17.5417C26.2483 17.5255 26.2687 17.515 26.2906 17.5118C26.3125 17.5087 26.3346 17.5132 26.3531 17.5245C30.225 19.9495 32.4781 23.6917 32.7844 28.2308C32.9375 30.5011 33.0391 32.8105 30.0234 32.8105C21.0828 32.8115 12.1417 32.812 3.2 32.812C1.48594 32.812 0.3125 32.4839 0 30.6542Z" fill="#EEF0F2"/>
<path d="M32.7891 80H2.13906C0.934896 79.7885 0.221875 79.0823 0 77.8812V39.9125C0.303125 38.3203 1.35313 37.8141 2.86875 37.8141C11.8458 37.813 20.8229 37.8125 29.8 37.8125C32.0516 37.8125 32.8125 38.6922 32.8141 40.9016C32.8234 53.9349 32.8151 66.9677 32.7891 80ZM15.3031 51.9625C15.3135 57.2552 15.3172 62.5479 15.3141 67.8406C15.313 68.4542 15.3797 68.9135 15.5141 69.2188C16.3281 71.0625 18.9828 71.0625 19.7766 69.2578C19.9255 68.9203 20 68.3359 20 67.5047C20.001 61.6891 20.0005 55.8734 19.9984 50.0578C19.9984 47.8781 18.9953 47.1844 16.8969 47.1859C15.7844 47.1875 13.75 46.9625 12.7609 47.3812C10.7953 48.2109 10.8672 50.9328 12.8297 51.7031C13.5156 51.9719 14.4391 51.8703 15.225 51.8828C15.2459 51.8832 15.2657 51.8918 15.2803 51.9067C15.2949 51.9216 15.3031 51.9416 15.3031 51.9625Z" fill="#EEF0F2"/>
<path d="M56.3813 80H37.5281L37.5078 50.3578C37.5078 50.3458 37.5128 50.3343 37.5215 50.3258C37.5303 50.3173 37.5423 50.3125 37.5547 50.3125C42.8297 50.3125 48.1068 50.3125 53.3859 50.3125C55.4391 50.3125 56.4016 51.0641 56.4047 53.1812C56.4161 62.1208 56.4083 71.0604 56.3813 80Z" fill="#EEF0F2"/>
<path d="M79.9984 64.9703V77.9C79.7682 79.0792 79.062 79.7792 77.8797 80H61.1219L61.1016 62.8578C61.1016 62.8462 61.1063 62.8351 61.1148 62.8269C61.1233 62.8187 61.1349 62.8141 61.1469 62.8141C66.4719 62.812 71.799 62.812 77.1281 62.8141C78.6672 62.8141 79.7281 63.3359 79.9984 64.9703Z" fill="#EEF0F2"/>
</g>
<mask id="mask0_1177_13549" style="mask-type:alpha" maskUnits="userSpaceOnUse" x="0" y="0" width="80" height="80">
<g clip-path="url(#clip1_1177_13549)">
<path d="M16.102 0H16.727C19.725 0.242708 21.9942 1.52135 23.5349 3.83594C26.313 8.01094 24.938 13.6609 20.6255 16.0672C16.1942 18.5406 10.4411 16.6766 8.48329 11.9141C6.15829 6.26094 10.1208 0.35625 16.102 0Z" fill="#EEF0F2"/>
<path d="M0 30.6542V28.3886C0.335417 23.6584 2.48906 20.0355 6.46094 17.5198C6.47953 17.5085 6.50146 17.5038 6.52307 17.5067C6.54468 17.5095 6.56466 17.5197 6.57969 17.5355C12.0547 23.298 20.7578 23.3167 26.2328 17.5417C26.2483 17.5255 26.2687 17.515 26.2906 17.5118C26.3125 17.5087 26.3346 17.5132 26.3531 17.5245C30.225 19.9495 32.4781 23.6917 32.7844 28.2308C32.9375 30.5011 33.0391 32.8105 30.0234 32.8105C21.0828 32.8115 12.1417 32.812 3.2 32.812C1.48594 32.812 0.3125 32.4839 0 30.6542Z" fill="#EEF0F2"/>
<path d="M32.7891 80H2.13906C0.934896 79.7885 0.221875 79.0823 0 77.8812V39.9125C0.303125 38.3203 1.35313 37.8141 2.86875 37.8141C11.8458 37.813 20.8229 37.8125 29.8 37.8125C32.0516 37.8125 32.8125 38.6922 32.8141 40.9016C32.8234 53.9349 32.8151 66.9677 32.7891 80ZM15.3031 51.9625C15.3135 57.2552 15.3172 62.5479 15.3141 67.8406C15.313 68.4542 15.3797 68.9135 15.5141 69.2188C16.3281 71.0625 18.9828 71.0625 19.7766 69.2578C19.9255 68.9203 20 68.3359 20 67.5047C20.001 61.6891 20.0005 55.8734 19.9984 50.0578C19.9984 47.8781 18.9953 47.1844 16.8969 47.1859C15.7844 47.1875 13.75 46.9625 12.7609 47.3812C10.7953 48.2109 10.8672 50.9328 12.8297 51.7031C13.5156 51.9719 14.4391 51.8703 15.225 51.8828C15.2459 51.8832 15.2657 51.8918 15.2803 51.9067C15.2949 51.9216 15.3031 51.9416 15.3031 51.9625Z" fill="#EEF0F2"/>
<path d="M56.3813 80H37.5281L37.5078 50.3578C37.5078 50.3458 37.5128 50.3343 37.5215 50.3258C37.5303 50.3173 37.5423 50.3125 37.5547 50.3125C42.8297 50.3125 48.1068 50.3125 53.3859 50.3125C55.4391 50.3125 56.4016 51.0641 56.4047 53.1812C56.4161 62.1208 56.4083 71.0604 56.3813 80Z" fill="#EEF0F2"/>
<path d="M79.9984 64.9703V77.9C79.7682 79.0792 79.062 79.7792 77.8797 80H61.1219L61.1016 62.8578C61.1016 62.8462 61.1063 62.8351 61.1148 62.8269C61.1233 62.8187 61.1349 62.8141 61.1469 62.8141C66.4719 62.812 71.799 62.812 77.1281 62.8141C78.6672 62.8141 79.7281 63.3359 79.9984 64.9703Z" fill="#EEF0F2"/>
</g>
</mask>
<g mask="url(#mask0_1177_13549)">
<path d="M113.469 44.8735C119.014 35.7088 132.222 35.7088 137.767 44.8735C140.684 49.6955 146.14 52.3424 151.702 51.6336C162.272 50.2863 170.507 60.6894 166.851 70.7702C164.928 76.0743 166.275 82.0219 170.293 85.96C177.929 93.4446 174.989 106.417 164.886 109.823C159.57 111.615 155.794 116.385 155.243 122.004C154.195 132.685 142.294 138.458 133.351 132.624C128.646 129.555 122.59 129.555 117.885 132.624C108.942 138.458 97.0413 132.685 95.9932 122.004C95.4417 116.385 91.6659 111.615 86.3499 109.823C76.2466 106.417 73.3074 93.4446 80.9431 85.96C84.9608 82.0219 86.3084 76.0743 84.3848 70.7702C80.7289 60.6894 88.9645 50.2863 99.5342 51.6336C105.096 52.3424 110.552 49.6955 113.469 44.8735Z" fill="url(#paint0_linear_1177_13549)"/>
<path d="M147.657 61.0804C152.586 52.9341 164.327 52.9341 169.256 61.0804C171.849 65.3667 176.699 67.7195 181.642 67.0894C191.037 65.8918 198.358 75.139 195.108 84.0997C193.398 88.8145 194.596 94.1012 198.168 97.6017C204.955 104.255 202.342 115.786 193.361 118.813C188.636 120.406 185.28 124.646 184.79 129.641C183.858 139.135 173.28 144.267 165.331 139.081C161.148 136.353 155.765 136.353 151.582 139.081C143.633 144.267 133.055 139.135 132.123 129.641C131.633 124.646 128.277 120.406 123.552 118.813C114.571 115.786 111.958 104.255 118.746 97.6017C122.317 94.1012 123.515 88.8145 121.805 84.0997C118.555 75.139 125.876 65.8918 135.271 67.0894C140.214 67.7195 145.064 65.3667 147.657 61.0804Z" fill="url(#paint1_linear_1177_13549)"/>
<path d="M115.245 84.1527C121.453 73.8914 136.243 73.8914 142.451 84.1527C145.717 89.5517 151.826 92.5154 158.053 91.7217C169.888 90.2132 179.109 101.861 175.015 113.148C172.861 119.087 174.37 125.746 178.869 130.156C187.418 138.536 184.127 153.06 172.815 156.874C166.863 158.88 162.635 164.221 162.018 170.513C160.844 182.471 147.519 188.935 137.507 182.404C132.238 178.967 125.458 178.967 120.189 182.404C110.177 188.935 96.8518 182.471 95.6783 170.513C95.0609 164.221 90.8332 158.88 84.8812 156.874C73.5689 153.06 70.278 138.536 78.8274 130.156C83.3258 125.746 84.8346 119.087 82.6809 113.148C78.5876 101.861 87.8086 90.2132 99.6431 91.7217C105.87 92.5154 111.979 89.5517 115.245 84.1527Z" fill="url(#paint2_linear_1177_13549)"/>
</g>
<defs>
<linearGradient id="paint0_linear_1177_13549" x1="109.382" y1="138.988" x2="216.882" y2="30.6581" gradientUnits="userSpaceOnUse">
<stop stop-color="#002D65"/>
<stop offset="0.937991" stop-color="#4CB5B8"/>
</linearGradient>
<linearGradient id="paint1_linear_1177_13549" x1="109.382" y1="138.988" x2="216.882" y2="30.6581" gradientUnits="userSpaceOnUse">
<stop stop-color="#002D65"/>
<stop offset="0.937991" stop-color="#4CB5B8"/>
</linearGradient>
<linearGradient id="paint2_linear_1177_13549" x1="109.382" y1="138.988" x2="216.882" y2="30.6581" gradientUnits="userSpaceOnUse">
<stop stop-color="#002D65"/>
<stop offset="0.937991" stop-color="#4CB5B8"/>
</linearGradient>
<clipPath id="clip0_1177_13549">
<rect width="80" height="80" fill="white"/>
</clipPath>
<clipPath id="clip1_1177_13549">
<rect width="80" height="80" fill="white"/>
</clipPath>
</defs>
</svg>
