<svg width="80" height="80" viewBox="0 0 80 80" fill="none" xmlns="http://www.w3.org/2000/svg">
<g clip-path="url(#clip0_1177_13832)">
<path d="M39.4235 0H40.5954C46.3922 0.423438 51.0485 4.71719 51.6501 10.5328C52.686 20.5563 41.2766 27.1172 33.1251 21.1812C27.8016 17.3047 26.6766 9.825 30.7344 4.58125C32.8605 1.83542 35.7568 0.308333 39.4235 0Z" fill="#EEF0F2"/>
<path d="M18.8969 80.0009H9.20937C7.40312 79.7228 7.1125 78.5931 6.94062 76.8759C6.26875 70.1416 5.59479 63.4056 4.91875 56.6681C4.91618 56.6458 4.90609 56.6252 4.89032 56.61C4.87455 56.5948 4.85414 56.586 4.83281 56.5853C2.9375 56.5291 0.48125 57.0666 0 54.4447V41.8275C0.473437 34.49 5.97656 29.0587 13.2922 28.4447C13.3766 28.4384 13.3922 28.3603 13.2953 28.3572C9.77969 28.2259 6.68125 25.6931 5.39375 22.6166C2.72813 16.2478 7.94219 9.04468 14.8969 9.72437C19.7531 10.1978 23.5547 14.3416 23.4328 19.2572C23.3172 23.9556 19.6641 27.9884 14.9234 28.3681C14.6297 28.3916 14.8328 28.4728 14.9203 28.4791C17.1203 28.6374 19.1885 29.2827 21.125 30.415C21.154 30.4323 21.1754 30.4601 21.1847 30.4926C21.194 30.5251 21.1905 30.5599 21.175 30.59C19.5854 33.5931 18.7859 36.8207 18.7766 40.2728C18.7651 44.5332 18.7547 48.7926 18.7453 53.0509C18.7432 54.3051 18.8156 55.2353 18.9625 55.8416C19.4698 57.9249 20.7307 59.4957 22.7453 60.5541C22.7657 60.5646 22.7824 60.5811 22.7932 60.6015C22.8041 60.6218 22.8086 60.645 22.8063 60.6681C22.2635 66.0733 21.7224 71.4738 21.1828 76.8697C21.0109 78.5962 20.7188 79.7353 18.8969 80.0009Z" fill="#EEF0F2"/>
<path d="M80.0005 42.0403V54.4622C79.488 57.0419 77.1114 56.5528 75.1599 56.5653C75.1403 56.5652 75.1213 56.5725 75.1066 56.5858C75.0919 56.599 75.0825 56.6173 75.0802 56.6372C74.3875 63.633 73.6859 70.6268 72.9755 77.6184C72.8396 78.9591 72.1302 79.8341 70.7333 79.9997H61.0849C59.2786 79.7216 58.9896 78.595 58.8177 76.8763C58.2771 71.4752 57.7364 66.0742 57.1958 60.6731C57.193 60.6435 57.1991 60.6137 57.2133 60.5876C57.2275 60.5614 57.2491 60.5401 57.2755 60.5262C59.2661 59.4846 60.5172 57.9387 61.0286 55.8887C61.1765 55.295 61.2505 54.4033 61.2505 53.2137C61.2484 48.8742 61.2364 44.5346 61.2146 40.195C61.1979 36.7898 60.4005 33.5846 58.8224 30.5794C58.8092 30.5541 58.8063 30.5248 58.8141 30.4975C58.822 30.4702 58.84 30.4469 58.8646 30.4325C60.7021 29.3262 62.6984 28.6804 64.8536 28.495C64.9052 28.4903 65.2224 28.4106 64.8677 28.37C61.9927 28.0356 59.4974 26.3809 58.0083 24.0262C54.8864 19.0903 57.0911 12.4325 62.5271 10.3387C71.0302 7.06531 78.7052 16.545 73.7505 24.22C72.2802 26.4981 69.5458 28.2356 66.6786 28.3512C66.6271 28.3544 66.5708 28.3794 66.6146 28.4356C66.6222 28.4458 66.6339 28.4544 66.6485 28.4606C66.6631 28.4669 66.6804 28.4706 66.6989 28.4716C74.0614 28.8669 79.6692 34.795 80.0005 42.0403Z" fill="#EEF0F2"/>
<path d="M44.7969 79.9997H35.1484C33.6 79.7715 33.0625 78.8059 32.9391 77.3309C32.3578 70.3674 31.7786 63.3794 31.2016 56.3669C31.1992 56.3349 31.1848 56.3051 31.1613 56.2834C31.1379 56.2616 31.107 56.2496 31.075 56.2497C29.6031 56.2497 28.1172 56.2497 26.6172 56.2497C24.5609 56.2497 23.5969 55.5012 23.5969 53.3794C23.5958 49.2835 23.5948 45.1882 23.5938 41.0934C23.5938 39.682 23.6339 38.6424 23.7141 37.9747C24.6016 30.545 30.25 24.8653 37.6078 23.6762C37.6141 23.6753 37.6204 23.6758 37.6265 23.6776C37.6325 23.6794 37.6381 23.6825 37.6429 23.6866C37.6476 23.6908 37.6514 23.6959 37.654 23.7017C37.6566 23.7074 37.6579 23.7137 37.6578 23.72C37.6578 28.8846 37.6578 34.0491 37.6578 39.2137C37.6578 39.9575 37.7333 40.4955 37.8844 40.8278C38.6984 42.6278 41.3734 42.6231 42.1547 40.7544C42.2797 40.4544 42.3422 39.9866 42.3422 39.3512C42.3464 34.1773 42.3469 29.0018 42.3437 23.8247C42.3437 23.8042 42.3481 23.7839 42.3567 23.7653C42.3654 23.7467 42.378 23.7302 42.3938 23.717C42.4096 23.7037 42.4281 23.6941 42.4481 23.6886C42.468 23.6832 42.4889 23.6822 42.5094 23.6856C49.7375 24.9606 55.2422 30.3981 56.2547 37.6731C56.3516 38.3679 56.401 39.407 56.4031 40.7903C56.4094 44.9049 56.4109 49.02 56.4078 53.1356C56.4062 55.2559 55.7219 56.2434 53.5266 56.2481C51.9849 56.2512 50.4375 56.2512 48.8844 56.2481C48.8647 56.248 48.8457 56.2554 48.8312 56.2687C48.8167 56.2821 48.8078 56.3004 48.8062 56.32C48.2156 63.4377 47.6255 70.5627 47.0359 77.695C46.9245 79.0408 46.1781 79.809 44.7969 79.9997Z" fill="#EEF0F2"/>
</g>
<defs>
<clipPath id="clip0_1177_13832">
<rect width="80" height="80" fill="white"/>
</clipPath>
</defs>
</svg>
