<svg width="81" height="80" viewBox="0 0 81 80" fill="none" xmlns="http://www.w3.org/2000/svg">
<g clip-path="url(#clip0_816_25770)">
<path d="M39.9235 0H41.0954C46.8922 0.423438 51.5485 4.71719 52.1501 10.5328C53.186 20.5563 41.7766 27.1172 33.6251 21.1812C28.3016 17.3047 27.1766 9.825 31.2344 4.58125C33.3605 1.83542 36.2568 0.308333 39.9235 0Z" fill="url(#paint0_linear_816_25770)"/>
<path d="M19.3969 80.0009H9.70937C7.90312 79.7228 7.6125 78.5931 7.44062 76.8759C6.76875 70.1416 6.09479 63.4056 5.41875 56.6681C5.41618 56.6458 5.40609 56.6252 5.39032 56.61C5.37455 56.5948 5.35414 56.586 5.33281 56.5853C3.4375 56.5291 0.98125 57.0666 0.5 54.4447V41.8275C0.973437 34.49 6.47656 29.0587 13.7922 28.4447C13.8766 28.4384 13.8922 28.3603 13.7953 28.3572C10.2797 28.2259 7.18125 25.6931 5.89375 22.6166C3.22813 16.2478 8.44219 9.04468 15.3969 9.72437C20.2531 10.1978 24.0547 14.3416 23.9328 19.2572C23.8172 23.9556 20.1641 27.9884 15.4234 28.3681C15.1297 28.3916 15.3328 28.4728 15.4203 28.4791C17.6203 28.6374 19.6885 29.2827 21.625 30.415C21.654 30.4323 21.6754 30.4601 21.6847 30.4926C21.694 30.5251 21.6905 30.5599 21.675 30.59C20.0854 33.5931 19.2859 36.8207 19.2766 40.2728C19.2651 44.5332 19.2547 48.7926 19.2453 53.0509C19.2432 54.3051 19.3156 55.2353 19.4625 55.8416C19.9698 57.9249 21.2307 59.4957 23.2453 60.5541C23.2657 60.5646 23.2824 60.5811 23.2932 60.6015C23.3041 60.6218 23.3086 60.645 23.3063 60.6681C22.7635 66.0733 22.2224 71.4738 21.6828 76.8697C21.5109 78.5962 21.2188 79.7353 19.3969 80.0009Z" fill="url(#paint1_linear_816_25770)"/>
<path d="M80.5005 42.0403V54.4622C79.988 57.0419 77.6114 56.5528 75.6599 56.5653C75.6403 56.5652 75.6213 56.5725 75.6066 56.5858C75.5919 56.599 75.5825 56.6173 75.5802 56.6372C74.8875 63.633 74.1859 70.6268 73.4755 77.6184C73.3396 78.9591 72.6302 79.8341 71.2333 79.9997H61.5849C59.7786 79.7216 59.4896 78.595 59.3177 76.8763C58.7771 71.4752 58.2364 66.0742 57.6958 60.6731C57.693 60.6435 57.6991 60.6137 57.7133 60.5876C57.7275 60.5614 57.7491 60.5401 57.7755 60.5262C59.7661 59.4846 61.0172 57.9387 61.5286 55.8887C61.6765 55.295 61.7505 54.4033 61.7505 53.2137C61.7484 48.8742 61.7364 44.5346 61.7146 40.195C61.6979 36.7898 60.9005 33.5846 59.3224 30.5794C59.3092 30.5541 59.3063 30.5248 59.3141 30.4975C59.322 30.4702 59.34 30.4469 59.3646 30.4325C61.2021 29.3262 63.1984 28.6804 65.3536 28.495C65.4052 28.4903 65.7224 28.4106 65.3677 28.37C62.4927 28.0356 59.9974 26.3809 58.5083 24.0262C55.3864 19.0903 57.5911 12.4325 63.0271 10.3387C71.5302 7.06531 79.2052 16.545 74.2505 24.22C72.7802 26.4981 70.0458 28.2356 67.1786 28.3512C67.1271 28.3544 67.0708 28.3794 67.1146 28.4356C67.1222 28.4458 67.1339 28.4544 67.1485 28.4606C67.1631 28.4669 67.1804 28.4706 67.1989 28.4716C74.5614 28.8669 80.1692 34.795 80.5005 42.0403Z" fill="url(#paint2_linear_816_25770)"/>
<path d="M45.2969 79.9997H35.6484C34.1 79.7715 33.5625 78.8059 33.4391 77.3309C32.8578 70.3674 32.2786 63.3794 31.7016 56.3669C31.6992 56.3349 31.6848 56.3051 31.6613 56.2834C31.6379 56.2616 31.607 56.2496 31.575 56.2497C30.1031 56.2497 28.6172 56.2497 27.1172 56.2497C25.0609 56.2497 24.0969 55.5012 24.0969 53.3794C24.0958 49.2835 24.0948 45.1882 24.0938 41.0934C24.0938 39.682 24.1339 38.6424 24.2141 37.9747C25.1016 30.545 30.75 24.8653 38.1078 23.6762C38.1141 23.6753 38.1204 23.6758 38.1265 23.6776C38.1325 23.6794 38.1381 23.6825 38.1429 23.6866C38.1476 23.6908 38.1514 23.6959 38.154 23.7017C38.1566 23.7074 38.1579 23.7137 38.1578 23.72C38.1578 28.8846 38.1578 34.0491 38.1578 39.2137C38.1578 39.9575 38.2333 40.4955 38.3844 40.8278C39.1984 42.6278 41.8734 42.6231 42.6547 40.7544C42.7797 40.4544 42.8422 39.9866 42.8422 39.3512C42.8464 34.1773 42.8469 29.0018 42.8437 23.8247C42.8437 23.8042 42.8481 23.7839 42.8567 23.7653C42.8654 23.7467 42.878 23.7302 42.8938 23.717C42.9096 23.7037 42.9281 23.6941 42.9481 23.6886C42.968 23.6832 42.9889 23.6822 43.0094 23.6856C50.2375 24.9606 55.7422 30.3981 56.7547 37.6731C56.8516 38.3679 56.901 39.407 56.9031 40.7903C56.9094 44.9049 56.9109 49.02 56.9078 53.1356C56.9062 55.2559 56.2219 56.2434 54.0266 56.2481C52.4849 56.2512 50.9375 56.2512 49.3844 56.2481C49.3647 56.248 49.3457 56.2554 49.3312 56.2687C49.3167 56.2821 49.3078 56.3004 49.3062 56.32C48.7156 63.4377 48.1255 70.5627 47.5359 77.695C47.4245 79.0408 46.6781 79.809 45.2969 79.9997Z" fill="url(#paint3_linear_816_25770)"/>
</g>
<defs>
<linearGradient id="paint0_linear_816_25770" x1="35.2648" y1="16.1003" x2="52.2234" y2="-3.51844" gradientUnits="userSpaceOnUse">
<stop stop-color="#002D65"/>
<stop offset="0.937991" stop-color="#4CB5B8"/>
</linearGradient>
<linearGradient id="paint1_linear_816_25770" x1="6.97815" y1="57.9898" x2="41.5108" y2="44.6709" gradientUnits="userSpaceOnUse">
<stop stop-color="#002D65"/>
<stop offset="0.937991" stop-color="#4CB5B8"/>
</linearGradient>
<linearGradient id="paint2_linear_816_25770" x1="63.5526" y1="57.9871" x2="98.0713" y2="44.682" gradientUnits="userSpaceOnUse">
<stop stop-color="#002D65"/>
<stop offset="0.937991" stop-color="#4CB5B8"/>
</linearGradient>
<linearGradient id="paint3_linear_816_25770" x1="33.1647" y1="62.3698" x2="71.3508" y2="36.6221" gradientUnits="userSpaceOnUse">
<stop stop-color="#002D65"/>
<stop offset="0.937991" stop-color="#4CB5B8"/>
</linearGradient>
<clipPath id="clip0_816_25770">
<rect width="80" height="80" fill="white" transform="translate(0.5)"/>
</clipPath>
</defs>
</svg>
